<?xml version="1.0" encoding="UTF-8" standalone="no"?>
<!-- Created with Inkscape (http://www.inkscape.org/) -->

<svg
   xmlns:dc="http://purl.org/dc/elements/1.1/"
   xmlns:cc="http://creativecommons.org/ns#"
   xmlns:rdf="http://www.w3.org/1999/02/22-rdf-syntax-ns#"
   xmlns:svg="http://www.w3.org/2000/svg"
   xmlns="http://www.w3.org/2000/svg"
   xmlns:sodipodi="http://sodipodi.sourceforge.net/DTD/sodipodi-0.dtd"
   xmlns:inkscape="http://www.inkscape.org/namespaces/inkscape"
   width="604"
   height="600"
   id="svg2"
   version="1.1"
   inkscape:version="0.47 r22583"
   sodipodi:docname="clock.svg">
  <defs
     id="defs4">
    <inkscape:perspective
       sodipodi:type="inkscape:persp3d"
       inkscape:vp_x="0 : 526.18109 : 1"
       inkscape:vp_y="0 : 1000 : 0"
       inkscape:vp_z="744.09448 : 526.18109 : 1"
       inkscape:persp3d-origin="372.04724 : 350.78739 : 1"
       id="perspective10" />
    <inkscape:perspective
       id="perspective2826"
       inkscape:persp3d-origin="0.5 : 0.33333333 : 1"
       inkscape:vp_z="1 : 0.5 : 1"
       inkscape:vp_y="0 : 1000 : 0"
       inkscape:vp_x="0 : 0.5 : 1"
       sodipodi:type="inkscape:persp3d" />
    <inkscape:perspective
       id="perspective3614"
       inkscape:persp3d-origin="0.5 : 0.33333333 : 1"
       inkscape:vp_z="1 : 0.5 : 1"
       inkscape:vp_y="0 : 1000 : 0"
       inkscape:vp_x="0 : 0.5 : 1"
       sodipodi:type="inkscape:persp3d" />
    <inkscape:perspective
       id="perspective3636"
       inkscape:persp3d-origin="0.5 : 0.33333333 : 1"
       inkscape:vp_z="1 : 0.5 : 1"
       inkscape:vp_y="0 : 1000 : 0"
       inkscape:vp_x="0 : 0.5 : 1"
       sodipodi:type="inkscape:persp3d" />
    <inkscape:perspective
       id="perspective3658"
       inkscape:persp3d-origin="0.5 : 0.33333333 : 1"
       inkscape:vp_z="1 : 0.5 : 1"
       inkscape:vp_y="0 : 1000 : 0"
       inkscape:vp_x="0 : 0.5 : 1"
       sodipodi:type="inkscape:persp3d" />
    <inkscape:perspective
       id="perspective3680"
       inkscape:persp3d-origin="0.5 : 0.33333333 : 1"
       inkscape:vp_z="1 : 0.5 : 1"
       inkscape:vp_y="0 : 1000 : 0"
       inkscape:vp_x="0 : 0.5 : 1"
       sodipodi:type="inkscape:persp3d" />
    <inkscape:perspective
       id="perspective3702"
       inkscape:persp3d-origin="0.5 : 0.33333333 : 1"
       inkscape:vp_z="1 : 0.5 : 1"
       inkscape:vp_y="0 : 1000 : 0"
       inkscape:vp_x="0 : 0.5 : 1"
       sodipodi:type="inkscape:persp3d" />
    <inkscape:perspective
       id="perspective3772"
       inkscape:persp3d-origin="0.5 : 0.33333333 : 1"
       inkscape:vp_z="1 : 0.5 : 1"
       inkscape:vp_y="0 : 1000 : 0"
       inkscape:vp_x="0 : 0.5 : 1"
       sodipodi:type="inkscape:persp3d" />
    <inkscape:perspective
       id="perspective3796"
       inkscape:persp3d-origin="0.5 : 0.33333333 : 1"
       inkscape:vp_z="1 : 0.5 : 1"
       inkscape:vp_y="0 : 1000 : 0"
       inkscape:vp_x="0 : 0.5 : 1"
       sodipodi:type="inkscape:persp3d" />
    <inkscape:perspective
       id="perspective3853"
       inkscape:persp3d-origin="0.5 : 0.33333333 : 1"
       inkscape:vp_z="1 : 0.5 : 1"
       inkscape:vp_y="0 : 1000 : 0"
       inkscape:vp_x="0 : 0.5 : 1"
       sodipodi:type="inkscape:persp3d" />
    <inkscape:perspective
       id="perspective3875"
       inkscape:persp3d-origin="0.5 : 0.33333333 : 1"
       inkscape:vp_z="1 : 0.5 : 1"
       inkscape:vp_y="0 : 1000 : 0"
       inkscape:vp_x="0 : 0.5 : 1"
       sodipodi:type="inkscape:persp3d" />
    <inkscape:perspective
       id="perspective3897"
       inkscape:persp3d-origin="0.5 : 0.33333333 : 1"
       inkscape:vp_z="1 : 0.5 : 1"
       inkscape:vp_y="0 : 1000 : 0"
       inkscape:vp_x="0 : 0.5 : 1"
       sodipodi:type="inkscape:persp3d" />
    <inkscape:perspective
       id="perspective3919"
       inkscape:persp3d-origin="0.5 : 0.33333333 : 1"
       inkscape:vp_z="1 : 0.5 : 1"
       inkscape:vp_y="0 : 1000 : 0"
       inkscape:vp_x="0 : 0.5 : 1"
       sodipodi:type="inkscape:persp3d" />
    <inkscape:perspective
       id="perspective3941"
       inkscape:persp3d-origin="0.5 : 0.33333333 : 1"
       inkscape:vp_z="1 : 0.5 : 1"
       inkscape:vp_y="0 : 1000 : 0"
       inkscape:vp_x="0 : 0.5 : 1"
       sodipodi:type="inkscape:persp3d" />
    <inkscape:perspective
       id="perspective3963"
       inkscape:persp3d-origin="0.5 : 0.33333333 : 1"
       inkscape:vp_z="1 : 0.5 : 1"
       inkscape:vp_y="0 : 1000 : 0"
       inkscape:vp_x="0 : 0.5 : 1"
       sodipodi:type="inkscape:persp3d" />
    <inkscape:perspective
       id="perspective3985"
       inkscape:persp3d-origin="0.5 : 0.33333333 : 1"
       inkscape:vp_z="1 : 0.5 : 1"
       inkscape:vp_y="0 : 1000 : 0"
       inkscape:vp_x="0 : 0.5 : 1"
       sodipodi:type="inkscape:persp3d" />
    <inkscape:perspective
       id="perspective4007"
       inkscape:persp3d-origin="0.5 : 0.33333333 : 1"
       inkscape:vp_z="1 : 0.5 : 1"
       inkscape:vp_y="0 : 1000 : 0"
       inkscape:vp_x="0 : 0.5 : 1"
       sodipodi:type="inkscape:persp3d" />
    <inkscape:perspective
       id="perspective4029"
       inkscape:persp3d-origin="0.5 : 0.33333333 : 1"
       inkscape:vp_z="1 : 0.5 : 1"
       inkscape:vp_y="0 : 1000 : 0"
       inkscape:vp_x="0 : 0.5 : 1"
       sodipodi:type="inkscape:persp3d" />
    <inkscape:perspective
       id="perspective4058"
       inkscape:persp3d-origin="0.5 : 0.33333333 : 1"
       inkscape:vp_z="1 : 0.5 : 1"
       inkscape:vp_y="0 : 1000 : 0"
       inkscape:vp_x="0 : 0.5 : 1"
       sodipodi:type="inkscape:persp3d" />
    <inkscape:perspective
       id="perspective4187"
       inkscape:persp3d-origin="0.5 : 0.33333333 : 1"
       inkscape:vp_z="1 : 0.5 : 1"
       inkscape:vp_y="0 : 1000 : 0"
       inkscape:vp_x="0 : 0.5 : 1"
       sodipodi:type="inkscape:persp3d" />
    <inkscape:perspective
       id="perspective4224"
       inkscape:persp3d-origin="0.5 : 0.33333333 : 1"
       inkscape:vp_z="1 : 0.5 : 1"
       inkscape:vp_y="0 : 1000 : 0"
       inkscape:vp_x="0 : 0.5 : 1"
       sodipodi:type="inkscape:persp3d" />
    <inkscape:perspective
       id="perspective4261"
       inkscape:persp3d-origin="0.5 : 0.33333333 : 1"
       inkscape:vp_z="1 : 0.5 : 1"
       inkscape:vp_y="0 : 1000 : 0"
       inkscape:vp_x="0 : 0.5 : 1"
       sodipodi:type="inkscape:persp3d" />
    <inkscape:perspective
       id="perspective4298"
       inkscape:persp3d-origin="0.5 : 0.33333333 : 1"
       inkscape:vp_z="1 : 0.5 : 1"
       inkscape:vp_y="0 : 1000 : 0"
       inkscape:vp_x="0 : 0.5 : 1"
       sodipodi:type="inkscape:persp3d" />
    <inkscape:perspective
       id="perspective4335"
       inkscape:persp3d-origin="0.5 : 0.33333333 : 1"
       inkscape:vp_z="1 : 0.5 : 1"
       inkscape:vp_y="0 : 1000 : 0"
       inkscape:vp_x="0 : 0.5 : 1"
       sodipodi:type="inkscape:persp3d" />
    <inkscape:perspective
       id="perspective4335-2"
       inkscape:persp3d-origin="0.5 : 0.33333333 : 1"
       inkscape:vp_z="1 : 0.5 : 1"
       inkscape:vp_y="0 : 1000 : 0"
       inkscape:vp_x="0 : 0.5 : 1"
       sodipodi:type="inkscape:persp3d" />
    <inkscape:perspective
       id="perspective4335-0"
       inkscape:persp3d-origin="0.5 : 0.33333333 : 1"
       inkscape:vp_z="1 : 0.5 : 1"
       inkscape:vp_y="0 : 1000 : 0"
       inkscape:vp_x="0 : 0.5 : 1"
       sodipodi:type="inkscape:persp3d" />
    <inkscape:perspective
       id="perspective4335-1"
       inkscape:persp3d-origin="0.5 : 0.33333333 : 1"
       inkscape:vp_z="1 : 0.5 : 1"
       inkscape:vp_y="0 : 1000 : 0"
       inkscape:vp_x="0 : 0.5 : 1"
       sodipodi:type="inkscape:persp3d" />
    <inkscape:perspective
       id="perspective4429"
       inkscape:persp3d-origin="0.5 : 0.33333333 : 1"
       inkscape:vp_z="1 : 0.5 : 1"
       inkscape:vp_y="0 : 1000 : 0"
       inkscape:vp_x="0 : 0.5 : 1"
       sodipodi:type="inkscape:persp3d" />
    <inkscape:perspective
       id="perspective4429-4"
       inkscape:persp3d-origin="0.5 : 0.33333333 : 1"
       inkscape:vp_z="1 : 0.5 : 1"
       inkscape:vp_y="0 : 1000 : 0"
       inkscape:vp_x="0 : 0.5 : 1"
       sodipodi:type="inkscape:persp3d" />
    <inkscape:perspective
       id="perspective4429-1"
       inkscape:persp3d-origin="0.5 : 0.33333333 : 1"
       inkscape:vp_z="1 : 0.5 : 1"
       inkscape:vp_y="0 : 1000 : 0"
       inkscape:vp_x="0 : 0.5 : 1"
       sodipodi:type="inkscape:persp3d" />
    <inkscape:perspective
       id="perspective4626"
       inkscape:persp3d-origin="0.5 : 0.33333333 : 1"
       inkscape:vp_z="1 : 0.5 : 1"
       inkscape:vp_y="0 : 1000 : 0"
       inkscape:vp_x="0 : 0.5 : 1"
       sodipodi:type="inkscape:persp3d" />
    <inkscape:perspective
       id="perspective4648"
       inkscape:persp3d-origin="0.5 : 0.33333333 : 1"
       inkscape:vp_z="1 : 0.5 : 1"
       inkscape:vp_y="0 : 1000 : 0"
       inkscape:vp_x="0 : 0.5 : 1"
       sodipodi:type="inkscape:persp3d" />
  </defs>
  <sodipodi:namedview
     id="base"
     pagecolor="#ffffff"
     bordercolor="#666666"
     borderopacity="1.0"
     inkscape:pageopacity="0.0"
     inkscape:pageshadow="2"
     inkscape:zoom="0.35"
     inkscape:cx="1074.4793"
     inkscape:cy="270.77688"
     inkscape:document-units="px"
     inkscape:current-layer="layer1"
     showgrid="true"
     inkscape:window-width="1680"
     inkscape:window-height="975"
     inkscape:window-x="0"
     inkscape:window-y="25"
     inkscape:window-maximized="1"
     inkscape:snap-center="false"
     inkscape:snap-bbox="false"
     inkscape:snap-global="false">
    <inkscape:grid
       type="xygrid"
       id="grid2816"
       empspacing="5"
       visible="true"
       enabled="true"
       snapvisiblegridlinesonly="true" />
  </sodipodi:namedview>
  <metadata
     id="metadata7">
    <rdf:RDF>
      <cc:Work
         rdf:about="">
        <dc:format>image/svg+xml</dc:format>
        <dc:type
           rdf:resource="http://purl.org/dc/dcmitype/StillImage" />
        <dc:title></dc:title>
      </cc:Work>
    </rdf:RDF>
  </metadata>
  <g
     inkscape:label="Layer 1"
     inkscape:groupmode="layer"
     id="layer1"
     transform="translate(0,-452.36218)">
    <g
       id="g4664"
       transform="translate(48,-18)">
      <path
         transform="matrix(0.98724488,0,0,0.9642857,-104.69385,416.1558)"
         d="m 640,372.36218 c 0,154.63973 -125.36027,280 -280,280 -154.63973,0 -280,-125.36027 -280,-280 0,-154.63973 125.36027,-279.999997 280,-279.999997 154.63973,0 280,125.360267 280,279.999997 z"
         sodipodi:ry="280"
         sodipodi:rx="280"
         sodipodi:cy="372.36218"
         sodipodi:cx="360"
         id="path2832"
         style="fill:#0068ff;fill-opacity:1;stroke:none"
         sodipodi:type="arc" />
      <path
         transform="matrix(0.94255646,0,0,0.9260204,-88.60605,429.69006)"
         d="m 640,372.36218 c 0,154.63973 -125.36027,280 -280,280 -154.63973,0 -280,-125.36027 -280,-280 0,-154.63973 125.36027,-279.999997 280,-279.999997 154.63973,0 280,125.360267 280,279.999997 z"
         sodipodi:ry="280"
         sodipodi:rx="280"
         sodipodi:cy="372.36218"
         sodipodi:cx="360"
         id="path2832-2"
         style="fill:#75a6ff;fill-opacity:1;stroke:none"
         sodipodi:type="arc" />
      <path
         transform="matrix(0.87244895,0,0,0.85714286,-63.188758,456.05174)"
         d="m 640,372.36218 c 0,154.63973 -125.36027,280 -280,280 -154.63973,0 -280,-125.36027 -280,-280 0,-154.63973 125.36027,-279.999997 280,-279.999997 154.63973,0 280,125.360267 280,279.999997 z"
         sodipodi:ry="280"
         sodipodi:rx="280"
         sodipodi:cy="372.36218"
         sodipodi:cx="360"
         id="path2832-2-2"
         style="fill:#0068ff;fill-opacity:1;stroke:none"
         sodipodi:type="arc" />
      <path
         transform="matrix(0.83609691,0,0,0.82142857,-50.280602,469.35039)"
         d="m 640,372.36218 c 0,154.63973 -125.36027,280 -280,280 -154.63973,0 -280,-125.36027 -280,-280 0,-154.63973 125.36027,-279.999997 280,-279.999997 154.63973,0 280,125.360267 280,279.999997 z"
         sodipodi:ry="280"
         sodipodi:rx="280"
         sodipodi:cy="372.36218"
         sodipodi:cx="360"
         id="path2832-2-2-3"
         style="fill:#f8ffff;fill-opacity:1;stroke:#75a6ff;stroke-width:8.6023159;stroke-miterlimit:4;stroke-opacity:1;stroke-dasharray:none"
         sodipodi:type="arc" />
      <rect
         rx="12.306122"
         inkscape:transform-center-y="13.785767"
         transform="matrix(-0.96979983,0.24390223,-0.24390223,-0.96979983,0,0)"
         inkscape:transform-center-x="54.814769"
         ry="4.4724798"
         y="-824.47882"
         x="-61.352955"
         height="20"
         width="130"
         id="rect3762"
         style="fill:#000000;fill-opacity:1;stroke:#0000ff;stroke-width:5;stroke-miterlimit:4;stroke-opacity:1;stroke-dasharray:none" />
      <g
         transform="translate(-114.28571,402.85714)"
         style="fill:#00a5ff;fill-opacity:1"
         id="g4556">
        <rect
           style="fill:#00a5ff;fill-opacity:1;stroke:none"
           id="rect3716"
           width="10"
           height="45"
           x="360"
           y="147.36218"
           ry="1.5118583"
           inkscape:transform-center-y="-202.5" />
        <path
           sodipodi:type="arc"
           style="fill:#00a5ff;fill-opacity:1;stroke:none"
           id="path3786"
           sodipodi:cx="360"
           sodipodi:cy="157.36218"
           sodipodi:rx="10"
           sodipodi:ry="10"
           d="m 370,157.36218 c 0,5.52285 -4.47715,10 -10,10 -5.52285,0 -10,-4.47715 -10,-10 0,-5.52284 4.47715,-10 10,-10 5.52285,0 10,4.47716 10,10 z"
           transform="matrix(0.45454545,0,0,0.45454545,201.36364,90.379373)"
           inkscape:transform-center-y="-210.45455" />
        <path
           sodipodi:type="arc"
           style="fill:#00a5ff;fill-opacity:1;stroke:none"
           id="path3786-6"
           sodipodi:cx="360"
           sodipodi:cy="157.36218"
           sodipodi:rx="10"
           sodipodi:ry="10"
           d="m 370,157.36218 c 0,5.52285 -4.47715,10 -10,10 -5.52285,0 -10,-4.47715 -10,-10 0,-5.52284 4.47715,-10 10,-10 5.52285,0 10,4.47716 10,10 z"
           transform="matrix(0.43905719,-0.11764502,0.11764502,0.43905719,133.95689,142.33991)"
           inkscape:transform-center-y="-203.28349"
           inkscape:transform-center-x="54.469646" />
        <path
           sodipodi:type="arc"
           style="fill:#00a5ff;fill-opacity:1;stroke:none"
           id="path3786-3"
           sodipodi:cx="360"
           sodipodi:cy="157.36218"
           sodipodi:rx="10"
           sodipodi:ry="10"
           d="m 370,157.36218 c 0,5.52285 -4.47715,10 -10,10 -5.52285,0 -10,-4.47715 -10,-10 0,-5.52284 4.47715,-10 10,-10 5.52285,0 10,4.47716 10,10 z"
           transform="matrix(0.45052053,-0.06035576,0.06035576,0.45052053,165.37018,114.60435)"
           inkscape:transform-center-y="-208.59101"
           inkscape:transform-center-x="27.944717" />
        <path
           sodipodi:type="arc"
           style="fill:#00a5ff;fill-opacity:1;stroke:none"
           id="path3786-9"
           sodipodi:cx="360"
           sodipodi:cy="157.36218"
           sodipodi:rx="10"
           sodipodi:ry="10"
           d="m 370,157.36218 c 0,5.52285 -4.47715,10 -10,10 -5.52285,0 -10,-4.47715 -10,-10 0,-5.52284 4.47715,-10 10,-10 5.52285,0 10,4.47716 10,10 z"
           transform="matrix(0.42060441,-0.17234702,0.17234702,0.42060441,106.66484,173.48004)"
           inkscape:transform-center-y="-194.73985"
           inkscape:transform-center-x="79.796671" />
        <rect
           style="fill:#00a5ff;fill-opacity:1;stroke:none"
           id="rect3716-4-5"
           width="10"
           height="45"
           x="134.87885"
           y="-727.61871"
           ry="1.5118583"
           inkscape:transform-center-y="-202.5"
           transform="matrix(-0.5,0.8660254,-0.8660254,-0.5,0,0)" />
        <path
           sodipodi:type="arc"
           style="fill:#00a5ff;fill-opacity:1;stroke:none"
           id="path3786-1-4"
           sodipodi:cx="360"
           sodipodi:cy="157.36218"
           sodipodi:rx="10"
           sodipodi:ry="10"
           d="m 370,157.36218 c 0,5.52285 -4.47715,10 -10,10 -5.52285,0 -10,-4.47715 -10,-10 0,-5.52284 4.47715,-10 10,-10 5.52285,0 10,4.47716 10,10 z"
           transform="matrix(-0.22727273,0.39364791,-0.39364791,-0.22727273,691.36362,371.72615)"
           inkscape:transform-center-y="-210.45455" />
        <path
           sodipodi:type="arc"
           style="fill:#00a5ff;fill-opacity:1;stroke:none"
           id="path3786-6-9-2"
           sodipodi:cx="360"
           sodipodi:cy="157.36218"
           sodipodi:rx="10"
           sodipodi:ry="10"
           d="m 370,157.36218 c 0,5.52285 -4.47715,10 -10,10 -5.52285,0 -10,-4.47715 -10,-10 0,-5.52284 4.47715,-10 10,-10 5.52285,0 10,4.47716 10,10 z"
           transform="matrix(-0.11764502,0.43905719,-0.43905719,-0.11764502,680.06785,287.36992)"
           inkscape:transform-center-y="-203.28349"
           inkscape:transform-center-x="54.469646" />
        <path
           sodipodi:type="arc"
           style="fill:#00a5ff;fill-opacity:1;stroke:none"
           id="path3786-3-1-3"
           sodipodi:cx="360"
           sodipodi:cy="157.36218"
           sodipodi:rx="10"
           sodipodi:ry="10"
           d="m 370,157.36218 c 0,5.52285 -4.47715,10 -10,10 -5.52285,0 -10,-4.47715 -10,-10 0,-5.52284 4.47715,-10 10,-10 5.52285,0 10,4.47716 10,10 z"
           transform="matrix(-0.17299064,0.4203401,-0.4203401,-0.17299064,688.3809,328.44241)"
           inkscape:transform-center-y="-208.59101"
           inkscape:transform-center-x="27.944717" />
        <path
           sodipodi:type="arc"
           style="fill:#00a5ff;fill-opacity:1;stroke:none"
           id="path3786-9-7-4"
           sodipodi:cx="360"
           sodipodi:cy="157.36218"
           sodipodi:rx="10"
           sodipodi:ry="10"
           d="m 370,157.36218 c 0,5.52285 -4.47715,10 -10,10 -5.52285,0 -10,-4.47715 -10,-10 0,-5.52284 4.47715,-10 10,-10 5.52285,0 10,4.47716 10,10 z"
           transform="matrix(-0.06104531,0.45042761,-0.45042761,-0.06104531,666.74573,248.16425)"
           inkscape:transform-center-y="-194.73985"
           inkscape:transform-center-x="79.796671" />
        <rect
           style="fill:#00a5ff;fill-opacity:1;stroke:none"
           id="rect3716-4-5-8"
           width="10"
           height="45"
           x="-134.91818"
           y="-729.9751"
           ry="1.5118583"
           inkscape:transform-center-y="-202.5"
           transform="matrix(-0.8660254,0.5,-0.5,-0.8660254,0,0)" />
        <path
           sodipodi:type="arc"
           style="fill:#00a5ff;fill-opacity:1;stroke:none"
           id="path3786-1-4-6"
           sodipodi:cx="360"
           sodipodi:cy="157.36218"
           sodipodi:rx="10"
           sodipodi:ry="10"
           d="m 370,157.36218 c 0,5.52285 -4.47715,10 -10,10 -5.52285,0 -10,-4.47715 -10,-10 0,-5.52284 4.47715,-10 10,-10 5.52285,0 10,4.47716 10,10 z"
           transform="matrix(-0.39364791,0.22727273,-0.22727273,-0.39364791,647.70465,534.74828)"
           inkscape:transform-center-y="-210.45455" />
        <path
           sodipodi:type="arc"
           style="fill:#00a5ff;fill-opacity:1;stroke:none"
           id="path3786-6-9-2-0"
           sodipodi:cx="360"
           sodipodi:cy="157.36218"
           sodipodi:rx="10"
           sodipodi:ry="10"
           d="m 370,157.36218 c 0,5.52285 -4.47715,10 -10,10 -5.52285,0 -10,-4.47715 -10,-10 0,-5.52284 4.47715,-10 10,-10 5.52285,0 10,4.47716 10,10 z"
           transform="matrix(-0.32141217,0.32141217,-0.32141217,-0.32141217,680.10034,456.04576)"
           inkscape:transform-center-y="-203.28349"
           inkscape:transform-center-x="54.469646" />
        <path
           sodipodi:type="arc"
           style="fill:#00a5ff;fill-opacity:1;stroke:none"
           id="path3786-3-1-3-4"
           sodipodi:cx="360"
           sodipodi:cy="157.36218"
           sodipodi:rx="10"
           sodipodi:ry="10"
           d="m 370,157.36218 c 0,5.52285 -4.47715,10 -10,10 -5.52285,0 -10,-4.47715 -10,-10 0,-5.52284 4.47715,-10 10,-10 5.52285,0 10,4.47716 10,10 z"
           transform="matrix(-0.35998434,0.27752989,-0.27752989,-0.35998434,666.76341,495.7721)"
           inkscape:transform-center-y="-208.59101"
           inkscape:transform-center-x="27.944717" />
        <path
           sodipodi:type="arc"
           style="fill:#00a5ff;fill-opacity:1;stroke:none"
           id="path3786-9-7-4-6"
           sodipodi:cx="360"
           sodipodi:cy="157.36218"
           sodipodi:rx="10"
           sodipodi:ry="10"
           d="m 370,157.36218 c 0,5.52285 -4.47715,10 -10,10 -5.52285,0 -10,-4.47715 -10,-10 0,-5.52284 4.47715,-10 10,-10 5.52285,0 10,4.47716 10,10 z"
           transform="matrix(-0.27808059,0.3595591,-0.3595591,-0.27808059,688.16588,415.43159)"
           inkscape:transform-center-y="-194.73985"
           inkscape:transform-center-x="79.796671" />
        <rect
           style="fill:#00a5ff;fill-opacity:1;stroke:none"
           id="rect3716-4-5-8-1"
           width="10"
           height="45"
           x="-370.44992"
           y="-597.34961"
           ry="1.5118583"
           inkscape:transform-center-y="-202.5"
           transform="scale(-1,-1)" />
        <path
           sodipodi:type="arc"
           style="fill:#00a5ff;fill-opacity:1;stroke:none"
           id="path3786-1-4-6-4"
           sodipodi:cx="360"
           sodipodi:cy="157.36218"
           sodipodi:rx="10"
           sodipodi:ry="10"
           d="m 370,157.36218 c 0,5.52285 -4.47715,10 -10,10 -5.52285,0 -10,-4.47715 -10,-10 0,-5.52284 4.47715,-10 10,-10 5.52285,0 10,4.47716 10,10 z"
           transform="matrix(-0.45454545,0,0,-0.45454545,529.08628,654.33245)"
           inkscape:transform-center-y="-210.45455" />
        <path
           sodipodi:type="arc"
           style="fill:#00a5ff;fill-opacity:1;stroke:none"
           id="path3786-6-9-2-0-5"
           sodipodi:cx="360"
           sodipodi:cy="157.36218"
           sodipodi:rx="10"
           sodipodi:ry="10"
           d="m 370,157.36218 c 0,5.52285 -4.47715,10 -10,10 -5.52285,0 -10,-4.47715 -10,-10 0,-5.52284 4.47715,-10 10,-10 5.52285,0 10,4.47716 10,10 z"
           transform="matrix(-0.43905719,0.11764502,-0.11764502,-0.43905719,596.49303,602.37191)"
           inkscape:transform-center-y="-203.28349"
           inkscape:transform-center-x="54.469646" />
        <path
           sodipodi:type="arc"
           style="fill:#00a5ff;fill-opacity:1;stroke:none"
           id="path3786-3-1-3-4-3"
           sodipodi:cx="360"
           sodipodi:cy="157.36218"
           sodipodi:rx="10"
           sodipodi:ry="10"
           d="m 370,157.36218 c 0,5.52285 -4.47715,10 -10,10 -5.52285,0 -10,-4.47715 -10,-10 0,-5.52284 4.47715,-10 10,-10 5.52285,0 10,4.47716 10,10 z"
           transform="matrix(-0.45052053,0.06035576,-0.06035576,-0.45052053,565.07974,630.10747)"
           inkscape:transform-center-y="-208.59101"
           inkscape:transform-center-x="27.944717" />
        <path
           sodipodi:type="arc"
           style="fill:#00a5ff;fill-opacity:1;stroke:none"
           id="path3786-9-7-4-6-6"
           sodipodi:cx="360"
           sodipodi:cy="157.36218"
           sodipodi:rx="10"
           sodipodi:ry="10"
           d="m 370,157.36218 c 0,5.52285 -4.47715,10 -10,10 -5.52285,0 -10,-4.47715 -10,-10 0,-5.52284 4.47715,-10 10,-10 5.52285,0 10,4.47716 10,10 z"
           transform="matrix(-0.42060441,0.17234702,-0.17234702,-0.42060441,623.78508,571.23178)"
           inkscape:transform-center-y="-194.73985"
           inkscape:transform-center-x="79.796671" />
        <rect
           style="fill:#00a5ff;fill-opacity:1;stroke:none"
           id="rect3716-4-5-8-1-2"
           width="10"
           height="45"
           x="-507.23489"
           y="-364.89636"
           ry="1.5118583"
           inkscape:transform-center-y="-202.5"
           transform="matrix(-0.8660254,-0.5,0.5,-0.8660254,0,0)" />
        <path
           sodipodi:type="arc"
           style="fill:#00a5ff;fill-opacity:1;stroke:none"
           id="path3786-1-4-6-4-7"
           sodipodi:cx="360"
           sodipodi:cy="157.36218"
           sodipodi:rx="10"
           sodipodi:ry="10"
           d="m 370,157.36218 c 0,5.52285 -4.47715,10 -10,10 -5.52285,0 -10,-4.47715 -10,-10 0,-5.52284 4.47715,-10 10,-10 5.52285,0 10,4.47716 10,10 z"
           transform="matrix(-0.39364791,-0.22727273,0.22727273,-0.39364791,365.72184,698.29373)"
           inkscape:transform-center-y="-210.45455" />
        <path
           sodipodi:type="arc"
           style="fill:#00a5ff;fill-opacity:1;stroke:none"
           id="path3786-6-9-2-0-5-0"
           sodipodi:cx="360"
           sodipodi:cy="157.36218"
           sodipodi:rx="10"
           sodipodi:ry="10"
           d="m 370,157.36218 c 0,5.52285 -4.47715,10 -10,10 -5.52285,0 -10,-4.47715 -10,-10 0,-5.52284 4.47715,-10 10,-10 5.52285,0 10,4.47716 10,10 z"
           transform="matrix(-0.43905719,-0.11764502,0.11764502,-0.43905719,450.07807,686.99796)"
           inkscape:transform-center-y="-203.28349"
           inkscape:transform-center-x="54.469646" />
        <path
           sodipodi:type="arc"
           style="fill:#00a5ff;fill-opacity:1;stroke:none"
           id="path3786-3-1-3-4-3-7"
           sodipodi:cx="360"
           sodipodi:cy="157.36218"
           sodipodi:rx="10"
           sodipodi:ry="10"
           d="m 370,157.36218 c 0,5.52285 -4.47715,10 -10,10 -5.52285,0 -10,-4.47715 -10,-10 0,-5.52284 4.47715,-10 10,-10 5.52285,0 10,4.47716 10,10 z"
           transform="matrix(-0.4203401,-0.17299064,0.17299064,-0.4203401,409.00558,695.31101)"
           inkscape:transform-center-y="-208.59101"
           inkscape:transform-center-x="27.944717" />
        <path
           sodipodi:type="arc"
           style="fill:#00a5ff;fill-opacity:1;stroke:none"
           id="path3786-9-7-4-6-6-4"
           sodipodi:cx="360"
           sodipodi:cy="157.36218"
           sodipodi:rx="10"
           sodipodi:ry="10"
           d="m 370,157.36218 c 0,5.52285 -4.47715,10 -10,10 -5.52285,0 -10,-4.47715 -10,-10 0,-5.52284 4.47715,-10 10,-10 5.52285,0 10,4.47716 10,10 z"
           transform="matrix(-0.45042761,-0.06104531,0.06104531,-0.45042761,489.28374,673.67584)"
           inkscape:transform-center-y="-194.73985"
           inkscape:transform-center-x="79.796671" />
        <rect
           style="fill:#00a5ff;fill-opacity:1;stroke:none"
           id="rect3716-4-5-8-1-2-1"
           width="10"
           height="45"
           x="-510.22"
           y="-94.829269"
           ry="1.5118583"
           inkscape:transform-center-y="-202.5"
           transform="matrix(-0.5,-0.8660254,0.8660254,-0.5,0,0)" />
        <path
           sodipodi:type="arc"
           style="fill:#00a5ff;fill-opacity:1;stroke:none"
           id="path3786-1-4-6-4-7-8"
           sodipodi:cx="360"
           sodipodi:cy="157.36218"
           sodipodi:rx="10"
           sodipodi:ry="10"
           d="m 370,157.36218 c 0,5.52285 -4.47715,10 -10,10 -5.52285,0 -10,-4.47715 -10,-10 0,-5.52284 4.47715,-10 10,-10 5.52285,0 10,4.47716 10,10 z"
           transform="matrix(-0.22727273,-0.39364791,0.39364791,-0.22727273,202.95506,655.15264)"
           inkscape:transform-center-y="-210.45455" />
        <path
           sodipodi:type="arc"
           style="fill:#00a5ff;fill-opacity:1;stroke:none"
           id="path3786-6-9-2-0-5-0-6"
           sodipodi:cx="360"
           sodipodi:cy="157.36218"
           sodipodi:rx="10"
           sodipodi:ry="10"
           d="m 370,157.36218 c 0,5.52285 -4.47715,10 -10,10 -5.52285,0 -10,-4.47715 -10,-10 0,-5.52284 4.47715,-10 10,-10 5.52285,0 10,4.47716 10,10 z"
           transform="matrix(-0.32141217,-0.32141217,0.32141217,-0.32141217,281.65758,687.54833)"
           inkscape:transform-center-y="-203.28349"
           inkscape:transform-center-x="54.469646" />
        <path
           sodipodi:type="arc"
           style="fill:#00a5ff;fill-opacity:1;stroke:none"
           id="path3786-3-1-3-4-3-7-2"
           sodipodi:cx="360"
           sodipodi:cy="157.36218"
           sodipodi:rx="10"
           sodipodi:ry="10"
           d="m 370,157.36218 c 0,5.52285 -4.47715,10 -10,10 -5.52285,0 -10,-4.47715 -10,-10 0,-5.52284 4.47715,-10 10,-10 5.52285,0 10,4.47716 10,10 z"
           transform="matrix(-0.27752989,-0.35998434,0.35998434,-0.27752989,241.93124,674.2114)"
           inkscape:transform-center-y="-208.59101"
           inkscape:transform-center-x="27.944717" />
        <path
           sodipodi:type="arc"
           style="fill:#00a5ff;fill-opacity:1;stroke:none"
           id="path3786-9-7-4-6-6-4-9"
           sodipodi:cx="360"
           sodipodi:cy="157.36218"
           sodipodi:rx="10"
           sodipodi:ry="10"
           d="m 370,157.36218 c 0,5.52285 -4.47715,10 -10,10 -5.52285,0 -10,-4.47715 -10,-10 0,-5.52284 4.47715,-10 10,-10 5.52285,0 10,4.47716 10,10 z"
           transform="matrix(-0.3595591,-0.27808059,0.27808059,-0.3595591,322.27175,695.61387)"
           inkscape:transform-center-y="-194.73985"
           inkscape:transform-center-x="79.796671" />
        <rect
           style="fill:#00a5ff;fill-opacity:1;stroke:none"
           id="rect3716-4-5-8-1-2-3"
           width="10"
           height="45"
           x="-377.27127"
           y="140"
           ry="1.5118583"
           inkscape:transform-center-y="-202.5"
           transform="matrix(0,-1,1,0,0,0)" />
        <path
           sodipodi:type="arc"
           style="fill:#00a5ff;fill-opacity:1;stroke:none"
           id="path3786-1-4-6-4-7-2"
           sodipodi:cx="360"
           sodipodi:cy="157.36218"
           sodipodi:rx="10"
           sodipodi:ry="10"
           d="m 370,157.36218 c 0,5.52285 -4.47715,10 -10,10 -5.52285,0 -10,-4.47715 -10,-10 0,-5.52284 4.47715,-10 10,-10 5.52285,0 10,4.47716 10,10 z"
           transform="matrix(0,-0.45454545,0.45454545,0,83.017189,535.90763)"
           inkscape:transform-center-y="-210.45455" />
        <path
           sodipodi:type="arc"
           style="fill:#00a5ff;fill-opacity:1;stroke:none"
           id="path3786-6-9-2-0-5-0-7"
           sodipodi:cx="360"
           sodipodi:cy="157.36218"
           sodipodi:rx="10"
           sodipodi:ry="10"
           d="m 370,157.36218 c 0,5.52285 -4.47715,10 -10,10 -5.52285,0 -10,-4.47715 -10,-10 0,-5.52284 4.47715,-10 10,-10 5.52285,0 10,4.47716 10,10 z"
           transform="matrix(-0.11764502,-0.43905719,0.43905719,-0.11764502,134.97773,603.31438)"
           inkscape:transform-center-y="-203.28349"
           inkscape:transform-center-x="54.469646" />
        <path
           sodipodi:type="arc"
           style="fill:#00a5ff;fill-opacity:1;stroke:none"
           id="path3786-3-1-3-4-3-7-0"
           sodipodi:cx="360"
           sodipodi:cy="157.36218"
           sodipodi:rx="10"
           sodipodi:ry="10"
           d="m 370,157.36218 c 0,5.52285 -4.47715,10 -10,10 -5.52285,0 -10,-4.47715 -10,-10 0,-5.52284 4.47715,-10 10,-10 5.52285,0 10,4.47716 10,10 z"
           transform="matrix(-0.06035576,-0.45052053,0.45052053,-0.06035576,107.24217,571.90109)"
           inkscape:transform-center-y="-208.59101"
           inkscape:transform-center-x="27.944717" />
        <path
           sodipodi:type="arc"
           style="fill:#00a5ff;fill-opacity:1;stroke:none"
           id="path3786-9-7-4-6-6-4-4"
           sodipodi:cx="360"
           sodipodi:cy="157.36218"
           sodipodi:rx="10"
           sodipodi:ry="10"
           d="m 370,157.36218 c 0,5.52285 -4.47715,10 -10,10 -5.52285,0 -10,-4.47715 -10,-10 0,-5.52284 4.47715,-10 10,-10 5.52285,0 10,4.47716 10,10 z"
           transform="matrix(-0.17234702,-0.42060441,0.42060441,-0.17234702,166.11786,630.60643)"
           inkscape:transform-center-y="-194.73985"
           inkscape:transform-center-x="79.796671" />
        <rect
           style="fill:#00a5ff;fill-opacity:1;stroke:none"
           id="rect3716-4-5-8-1-2-8"
           width="10"
           height="45"
           x="-144.87885"
           y="277.61871"
           ry="1.5118583"
           inkscape:transform-center-y="-202.5"
           transform="matrix(0.5,-0.8660254,0.8660254,0.5,0,0)" />
        <path
           sodipodi:type="arc"
           style="fill:#00a5ff;fill-opacity:1;stroke:none"
           id="path3786-1-4-6-4-7-0"
           sodipodi:cx="360"
           sodipodi:cy="157.36218"
           sodipodi:rx="10"
           sodipodi:ry="10"
           d="m 370,157.36218 c 0,5.52285 -4.47715,10 -10,10 -5.52285,0 -10,-4.47715 -10,-10 0,-5.52284 4.47715,-10 10,-10 5.52285,0 10,4.47716 10,10 z"
           transform="matrix(0.22727273,-0.39364791,0.39364791,0.22727273,39.318703,373.16983)"
           inkscape:transform-center-y="-210.45455" />
        <path
           sodipodi:type="arc"
           style="fill:#00a5ff;fill-opacity:1;stroke:none"
           id="path3786-6-9-2-0-5-0-0"
           sodipodi:cx="360"
           sodipodi:cy="157.36218"
           sodipodi:rx="10"
           sodipodi:ry="10"
           d="m 370,157.36218 c 0,5.52285 -4.47715,10 -10,10 -5.52285,0 -10,-4.47715 -10,-10 0,-5.52284 4.47715,-10 10,-10 5.52285,0 10,4.47716 10,10 z"
           transform="matrix(0.11764502,-0.43905719,0.43905719,0.11764502,50.614472,457.52606)"
           inkscape:transform-center-y="-203.28349"
           inkscape:transform-center-x="54.469646" />
        <path
           sodipodi:type="arc"
           style="fill:#00a5ff;fill-opacity:1;stroke:none"
           id="path3786-3-1-3-4-3-7-7"
           sodipodi:cx="360"
           sodipodi:cy="157.36218"
           sodipodi:rx="10"
           sodipodi:ry="10"
           d="m 370,157.36218 c 0,5.52285 -4.47715,10 -10,10 -5.52285,0 -10,-4.47715 -10,-10 0,-5.52284 4.47715,-10 10,-10 5.52285,0 10,4.47716 10,10 z"
           transform="matrix(0.17299064,-0.4203401,0.4203401,0.17299064,42.301418,416.45357)"
           inkscape:transform-center-y="-208.59101"
           inkscape:transform-center-x="27.944717" />
        <path
           sodipodi:type="arc"
           style="fill:#00a5ff;fill-opacity:1;stroke:none"
           id="path3786-9-7-4-6-6-4-0"
           sodipodi:cx="360"
           sodipodi:cy="157.36218"
           sodipodi:rx="10"
           sodipodi:ry="10"
           d="m 370,157.36218 c 0,5.52285 -4.47715,10 -10,10 -5.52285,0 -10,-4.47715 -10,-10 0,-5.52284 4.47715,-10 10,-10 5.52285,0 10,4.47716 10,10 z"
           transform="matrix(0.06104531,-0.45042761,0.45042761,0.06104531,63.936591,496.73173)"
           inkscape:transform-center-y="-194.73985"
           inkscape:transform-center-x="79.796671" />
        <rect
           style="fill:#00a5ff;fill-opacity:1;stroke:none"
           id="rect3716-4-5-8-1-2-7"
           width="10"
           height="45"
           x="125.17072"
           y="280.22"
           ry="1.5118583"
           inkscape:transform-center-y="-202.5"
           transform="matrix(0.8660254,-0.5,0.5,0.8660254,0,0)" />
        <path
           sodipodi:type="arc"
           style="fill:#00a5ff;fill-opacity:1;stroke:none"
           id="path3786-1-4-6-4-7-4"
           sodipodi:cx="360"
           sodipodi:cy="157.36218"
           sodipodi:rx="10"
           sodipodi:ry="10"
           d="m 370,157.36218 c 0,5.52285 -4.47715,10 -10,10 -5.52285,0 -10,-4.47715 -10,-10 0,-5.52284 4.47715,-10 10,-10 5.52285,0 10,4.47716 10,10 z"
           transform="matrix(0.39364791,-0.22727273,0.22727273,0.39364791,82.636503,210.06189)"
           inkscape:transform-center-y="-210.45455" />
        <path
           sodipodi:type="arc"
           style="fill:#00a5ff;fill-opacity:1;stroke:none"
           id="path3786-6-9-2-0-5-0-9"
           sodipodi:cx="360"
           sodipodi:cy="157.36218"
           sodipodi:rx="10"
           sodipodi:ry="10"
           d="m 370,157.36218 c 0,5.52285 -4.47715,10 -10,10 -5.52285,0 -10,-4.47715 -10,-10 0,-5.52284 4.47715,-10 10,-10 5.52285,0 10,4.47716 10,10 z"
           transform="matrix(0.32141217,-0.32141217,0.32141217,0.32141217,50.240814,288.76441)"
           inkscape:transform-center-y="-203.28349"
           inkscape:transform-center-x="54.469646" />
        <path
           sodipodi:type="arc"
           style="fill:#00a5ff;fill-opacity:1;stroke:none"
           id="path3786-3-1-3-4-3-7-07"
           sodipodi:cx="360"
           sodipodi:cy="157.36218"
           sodipodi:rx="10"
           sodipodi:ry="10"
           d="m 370,157.36218 c 0,5.52285 -4.47715,10 -10,10 -5.52285,0 -10,-4.47715 -10,-10 0,-5.52284 4.47715,-10 10,-10 5.52285,0 10,4.47716 10,10 z"
           transform="matrix(0.35998434,-0.27752989,0.27752989,0.35998434,63.577741,249.03807)"
           inkscape:transform-center-y="-208.59101"
           inkscape:transform-center-x="27.944717" />
        <path
           sodipodi:type="arc"
           style="fill:#00a5ff;fill-opacity:1;stroke:none"
           id="path3786-9-7-4-6-6-4-8"
           sodipodi:cx="360"
           sodipodi:cy="157.36218"
           sodipodi:rx="10"
           sodipodi:ry="10"
           d="m 370,157.36218 c 0,5.52285 -4.47715,10 -10,10 -5.52285,0 -10,-4.47715 -10,-10 0,-5.52284 4.47715,-10 10,-10 5.52285,0 10,4.47716 10,10 z"
           transform="matrix(0.27808059,-0.3595591,0.3595591,0.27808059,42.175271,329.37858)"
           inkscape:transform-center-y="-194.73985"
           inkscape:transform-center-x="79.796671" />
        <rect
           style="fill:#00a5ff;fill-opacity:1;stroke:none"
           id="rect3716-4-4"
           width="10"
           height="45"
           x="497.28036"
           y="-85.024895"
           ry="1.5118583"
           inkscape:transform-center-y="-202.5"
           transform="matrix(0.8660254,0.5,-0.5,0.8660254,0,0)" />
        <path
           sodipodi:type="arc"
           style="fill:#00a5ff;fill-opacity:1;stroke:none"
           id="path3786-1-0"
           sodipodi:cx="360"
           sodipodi:cy="157.36218"
           sodipodi:rx="10"
           sodipodi:ry="10"
           d="m 370,157.36218 c 0,5.52285 -4.47715,10 -10,10 -5.52285,0 -10,-4.47715 -10,-10 0,-5.52284 4.47715,-10 10,-10 5.52285,0 10,4.47716 10,10 z"
           transform="matrix(0.39364791,0.22727273,-0.22727273,0.39364791,364.27816,46.339723)"
           inkscape:transform-center-y="-210.45455" />
        <path
           sodipodi:type="arc"
           style="fill:#00a5ff;fill-opacity:1;stroke:none"
           id="path3786-6-9-7"
           sodipodi:cx="360"
           sodipodi:cy="157.36218"
           sodipodi:rx="10"
           sodipodi:ry="10"
           d="m 370,157.36218 c 0,5.52285 -4.47715,10 -10,10 -5.52285,0 -10,-4.47715 -10,-10 0,-5.52284 4.47715,-10 10,-10 5.52285,0 10,4.47716 10,10 z"
           transform="matrix(0.43905719,0.11764502,-0.11764502,0.43905719,279.92193,57.635492)"
           inkscape:transform-center-y="-203.28349"
           inkscape:transform-center-x="54.469646" />
        <path
           sodipodi:type="arc"
           style="fill:#00a5ff;fill-opacity:1;stroke:none"
           id="path3786-3-1-5"
           sodipodi:cx="360"
           sodipodi:cy="157.36218"
           sodipodi:rx="10"
           sodipodi:ry="10"
           d="m 370,157.36218 c 0,5.52285 -4.47715,10 -10,10 -5.52285,0 -10,-4.47715 -10,-10 0,-5.52284 4.47715,-10 10,-10 5.52285,0 10,4.47716 10,10 z"
           transform="matrix(0.4203401,0.17299064,-0.17299064,0.4203401,320.99442,49.322438)"
           inkscape:transform-center-y="-208.59101"
           inkscape:transform-center-x="27.944717" />
        <path
           sodipodi:type="arc"
           style="fill:#00a5ff;fill-opacity:1;stroke:none"
           id="path3786-9-7-6"
           sodipodi:cx="360"
           sodipodi:cy="157.36218"
           sodipodi:rx="10"
           sodipodi:ry="10"
           d="m 370,157.36218 c 0,5.52285 -4.47715,10 -10,10 -5.52285,0 -10,-4.47715 -10,-10 0,-5.52284 4.47715,-10 10,-10 5.52285,0 10,4.47716 10,10 z"
           transform="matrix(0.45042761,0.06104531,-0.06104531,0.45042761,240.71626,70.957611)"
           inkscape:transform-center-y="-194.73985"
           inkscape:transform-center-x="79.796671" />
        <rect
           style="fill:#00a5ff;fill-opacity:1;stroke:none"
           id="rect3716-4-3"
           width="10"
           height="45"
           x="499.89639"
           y="-354.96362"
           ry="1.5118583"
           inkscape:transform-center-y="-202.5"
           transform="matrix(0.5,0.8660254,-0.8660254,0.5,0,0)" />
        <path
           sodipodi:type="arc"
           style="fill:#00a5ff;fill-opacity:1;stroke:none"
           id="path3786-1-45"
           sodipodi:cx="360"
           sodipodi:cy="157.36218"
           sodipodi:rx="10"
           sodipodi:ry="10"
           d="m 370,157.36218 c 0,5.52285 -4.47715,10 -10,10 -5.52285,0 -10,-4.47715 -10,-10 0,-5.52284 4.47715,-10 10,-10 5.52285,0 10,4.47716 10,10 z"
           transform="matrix(0.22727273,0.39364791,-0.39364791,0.22727273,527.3861,89.566623)"
           inkscape:transform-center-y="-210.45455" />
        <path
           sodipodi:type="arc"
           style="fill:#00a5ff;fill-opacity:1;stroke:none"
           id="path3786-6-9-6"
           sodipodi:cx="360"
           sodipodi:cy="157.36218"
           sodipodi:rx="10"
           sodipodi:ry="10"
           d="m 370,157.36218 c 0,5.52285 -4.47715,10 -10,10 -5.52285,0 -10,-4.47715 -10,-10 0,-5.52284 4.47715,-10 10,-10 5.52285,0 10,4.47716 10,10 z"
           transform="matrix(0.32141217,0.32141217,-0.32141217,0.32141217,448.68358,57.170934)"
           inkscape:transform-center-y="-203.28349"
           inkscape:transform-center-x="54.469646" />
        <path
           sodipodi:type="arc"
           style="fill:#00a5ff;fill-opacity:1;stroke:none"
           id="path3786-3-1-54"
           sodipodi:cx="360"
           sodipodi:cy="157.36218"
           sodipodi:rx="10"
           sodipodi:ry="10"
           d="m 370,157.36218 c 0,5.52285 -4.47715,10 -10,10 -5.52285,0 -10,-4.47715 -10,-10 0,-5.52284 4.47715,-10 10,-10 5.52285,0 10,4.47716 10,10 z"
           transform="matrix(0.27752989,0.35998434,-0.35998434,0.27752989,488.40992,70.507861)"
           inkscape:transform-center-y="-208.59101"
           inkscape:transform-center-x="27.944717" />
        <path
           sodipodi:type="arc"
           style="fill:#00a5ff;fill-opacity:1;stroke:none"
           id="path3786-9-7-9"
           sodipodi:cx="360"
           sodipodi:cy="157.36218"
           sodipodi:rx="10"
           sodipodi:ry="10"
           d="m 370,157.36218 c 0,5.52285 -4.47715,10 -10,10 -5.52285,0 -10,-4.47715 -10,-10 0,-5.52284 4.47715,-10 10,-10 5.52285,0 10,4.47716 10,10 z"
           transform="matrix(0.3595591,0.27808059,-0.27808059,0.3595591,408.06941,49.105391)"
           inkscape:transform-center-y="-194.73985"
           inkscape:transform-center-x="79.796671" />
        <rect
           style="fill:#00a5ff;fill-opacity:1;stroke:none"
           id="rect3716-4-56"
           width="10"
           height="45"
           x="367.36218"
           y="-590"
           ry="1.5118583"
           inkscape:transform-center-y="-202.5"
           transform="matrix(0,1,-1,0,0,0)" />
        <path
           sodipodi:type="arc"
           style="fill:#00a5ff;fill-opacity:1;stroke:none"
           id="path3786-1-04"
           sodipodi:cx="360"
           sodipodi:cy="157.36218"
           sodipodi:rx="10"
           sodipodi:ry="10"
           d="m 370,157.36218 c 0,5.52285 -4.47715,10 -10,10 -5.52285,0 -10,-4.47715 -10,-10 0,-5.52284 4.47715,-10 10,-10 5.52285,0 10,4.47716 10,10 z"
           transform="matrix(0,0.45454545,-0.45454545,0,646.98281,208.72582)"
           inkscape:transform-center-y="-210.45455" />
        <path
           sodipodi:type="arc"
           style="fill:#00a5ff;fill-opacity:1;stroke:none"
           id="path3786-6-9-1"
           sodipodi:cx="360"
           sodipodi:cy="157.36218"
           sodipodi:rx="10"
           sodipodi:ry="10"
           d="m 370,157.36218 c 0,5.52285 -4.47715,10 -10,10 -5.52285,0 -10,-4.47715 -10,-10 0,-5.52284 4.47715,-10 10,-10 5.52285,0 10,4.47716 10,10 z"
           transform="matrix(0.11764502,0.43905719,-0.43905719,0.11764502,595.02227,141.31907)"
           inkscape:transform-center-y="-203.28349"
           inkscape:transform-center-x="54.469646" />
        <path
           sodipodi:type="arc"
           style="fill:#00a5ff;fill-opacity:1;stroke:none"
           id="path3786-3-1-8"
           sodipodi:cx="360"
           sodipodi:cy="157.36218"
           sodipodi:rx="10"
           sodipodi:ry="10"
           d="m 370,157.36218 c 0,5.52285 -4.47715,10 -10,10 -5.52285,0 -10,-4.47715 -10,-10 0,-5.52284 4.47715,-10 10,-10 5.52285,0 10,4.47716 10,10 z"
           transform="matrix(0.06035576,0.45052053,-0.45052053,0.06035576,622.75783,172.73236)"
           inkscape:transform-center-y="-208.59101"
           inkscape:transform-center-x="27.944717" />
        <path
           sodipodi:type="arc"
           style="fill:#00a5ff;fill-opacity:1;stroke:none"
           id="path3786-9-7-42"
           sodipodi:cx="360"
           sodipodi:cy="157.36218"
           sodipodi:rx="10"
           sodipodi:ry="10"
           d="m 370,157.36218 c 0,5.52285 -4.47715,10 -10,10 -5.52285,0 -10,-4.47715 -10,-10 0,-5.52284 4.47715,-10 10,-10 5.52285,0 10,4.47716 10,10 z"
           transform="matrix(0.17234702,0.42060441,-0.42060441,0.17234702,563.88214,114.02702)"
           inkscape:transform-center-y="-194.73985"
           inkscape:transform-center-x="79.796671" />
      </g>
      <rect
         rx="12.978579"
         inkscape:transform-center-y="-70.751411"
         transform="matrix(0.7066992,-0.70751413,0.70751413,0.7066992,0,0)"
         inkscape:transform-center-x="-70.669924"
         ry="7.2575359"
         y="715.8313"
         x="-381.91174"
         height="20"
         width="230"
         id="rect3762-0"
         style="fill:#000000;fill-opacity:1;stroke:#0000ff;stroke-width:5;stroke-miterlimit:4;stroke-opacity:1;stroke-dasharray:none" />
      <rect
         rx="13.278619"
         inkscape:transform-center-y="85.281898"
         transform="matrix(0.55244594,0.83354873,-0.78630047,0.6178443,0,0)"
         inkscape:transform-center-x="-56.521735"
         ry="3.9863305"
         y="214.39511"
         x="751.7356"
         height="8.8174219"
         width="236.8828"
         id="rect3762-0-4"
         style="fill:#00ffff;fill-opacity:1;stroke:none" />
      <rect
         rx="10.526052"
         inkscape:transform-center-y="23.271051"
         transform="matrix(0.55244594,0.83354873,-0.78630047,0.6178443,0,0)"
         inkscape:transform-center-x="-15.423206"
         ry="8.7343025"
         y="204.75136"
         x="691.64435"
         height="32.137718"
         width="68.668678"
         id="rect3762-0-4-0"
         style="fill:#00ffff;fill-opacity:1;stroke:none" />
      <path
         transform="translate(-114.28571,402.85714)"
         d="m 396.07143,372.71933 c 0,17.16028 -13.91115,31.07143 -31.07143,31.07143 -17.16028,0 -31.07143,-13.91115 -31.07143,-31.07143 0,-17.16028 13.91115,-31.07143 31.07143,-31.07143 17.16028,0 31.07143,13.91115 31.07143,31.07143 z"
         sodipodi:ry="31.071428"
         sodipodi:rx="31.071428"
         sodipodi:cy="372.71933"
         sodipodi:cx="365"
         id="path4662"
         style="fill:#00bcff;fill-opacity:1;stroke:none"
         sodipodi:type="arc" />
    </g>
  </g>
</svg>
