<?xml version="1.0" encoding="UTF-8" standalone="no"?>
<!-- Created with Inkscape (http://www.inkscape.org/) -->

<svg
   xmlns:dc="http://purl.org/dc/elements/1.1/"
   xmlns:cc="http://creativecommons.org/ns#"
   xmlns:rdf="http://www.w3.org/1999/02/22-rdf-syntax-ns#"
   xmlns:svg="http://www.w3.org/2000/svg"
   xmlns="http://www.w3.org/2000/svg"
   xmlns:xlink="http://www.w3.org/1999/xlink"
   xmlns:sodipodi="http://sodipodi.sourceforge.net/DTD/sodipodi-0.dtd"
   xmlns:inkscape="http://www.inkscape.org/namespaces/inkscape"
   width="48"
   height="48"
   id="svg2"
   version="1.1"
   inkscape:version="0.47 r22583"
   sodipodi:docname="projector.svg"
   style="display:inline"
   inkscape:export-filename="C:\Dokumente und Einstellungen\spktkpkt\Desktop\projector.png"
   inkscape:export-xdpi="90"
   inkscape:export-ydpi="90">
  <title
     id="title2915">projector</title>
  <defs
     id="defs4">
    <inkscape:perspective
       sodipodi:type="inkscape:persp3d"
       inkscape:vp_x="0 : 24 : 1"
       inkscape:vp_y="0 : 1000 : 0"
       inkscape:vp_z="48 : 24 : 1"
       inkscape:persp3d-origin="24 : 16 : 1"
       id="perspective109" />
    <linearGradient
       id="linearGradient3976"
       inkscape:collect="always">
      <stop
         id="stop3978"
         offset="0"
         style="stop-color:#2e3436;stop-opacity:1" />
      <stop
         id="stop3980"
         offset="1"
         style="stop-color:#eeeeec;stop-opacity:1" />
    </linearGradient>
    <linearGradient
       id="linearGradient3962">
      <stop
         style="stop-color:#000000;stop-opacity:1;"
         offset="0"
         id="stop3964" />
      <stop
         style="stop-color:#888a85;stop-opacity:1;"
         offset="1"
         id="stop3966" />
    </linearGradient>
    <linearGradient
       id="linearGradient3940">
      <stop
         style="stop-color:#000000;stop-opacity:1;"
         offset="0"
         id="stop3942" />
      <stop
         style="stop-color:#2e3436;stop-opacity:1;"
         offset="1"
         id="stop3944" />
    </linearGradient>
    <linearGradient
       inkscape:collect="always"
       id="linearGradient3922">
      <stop
         style="stop-color:#000000;stop-opacity:1;"
         offset="0"
         id="stop3924" />
      <stop
         style="stop-color:#000000;stop-opacity:0;"
         offset="1"
         id="stop3926" />
    </linearGradient>
    <linearGradient
       id="linearGradient3910">
      <stop
         style="stop-color:#000000;stop-opacity:0;"
         offset="0"
         id="stop3912" />
      <stop
         id="stop3918"
         offset="0.5"
         style="stop-color:#000000;stop-opacity:1;" />
      <stop
         style="stop-color:#000000;stop-opacity:0;"
         offset="1"
         id="stop3914" />
    </linearGradient>
    <linearGradient
       id="linearGradient3873">
      <stop
         style="stop-color:#ffffff;stop-opacity:1;"
         offset="0"
         id="stop3875" />
      <stop
         id="stop3881"
         offset="0.5"
         style="stop-color:#ffffff;stop-opacity:1;" />
      <stop
         style="stop-color:#ffffff;stop-opacity:0;"
         offset="1"
         id="stop3877" />
    </linearGradient>
    <linearGradient
       inkscape:collect="always"
       id="linearGradient3844">
      <stop
         style="stop-color:#555753;stop-opacity:1"
         offset="0"
         id="stop3846" />
      <stop
         style="stop-color:#d3d7cf;stop-opacity:1"
         offset="1"
         id="stop3848" />
    </linearGradient>
    <linearGradient
       id="linearGradient3760">
      <stop
         style="stop-color:#eeeeec;stop-opacity:1"
         offset="0"
         id="stop3762" />
      <stop
         style="stop-color:#888a85;stop-opacity:1"
         offset="1"
         id="stop3764" />
    </linearGradient>
    <linearGradient
       id="linearGradient3750">
      <stop
         style="stop-color:#eff0ee;stop-opacity:1;"
         offset="0"
         id="stop3752" />
      <stop
         style="stop-color:#d3d7cf;stop-opacity:1;"
         offset="1"
         id="stop3754" />
    </linearGradient>
    <linearGradient
       id="linearGradient3730">
      <stop
         style="stop-color:#ffffff;stop-opacity:1;"
         offset="0"
         id="stop3732" />
      <stop
         style="stop-color:#555753;stop-opacity:1"
         offset="1"
         id="stop3734" />
    </linearGradient>
    <linearGradient
       inkscape:collect="always"
       id="linearGradient3722">
      <stop
         style="stop-color:#000000;stop-opacity:1;"
         offset="0"
         id="stop3724" />
      <stop
         style="stop-color:#000000;stop-opacity:0;"
         offset="1"
         id="stop3726" />
    </linearGradient>
    <linearGradient
       id="linearGradient3710">
      <stop
         style="stop-color:#204a87;stop-opacity:1"
         offset="0"
         id="stop3712" />
      <stop
         id="stop3720"
         offset="0.40306121"
         style="stop-color:#ad7fa8;stop-opacity:1" />
      <stop
         id="stop3718"
         offset="0.70408159"
         style="stop-color:#729fcf;stop-opacity:1" />
      <stop
         style="stop-color:#75507b;stop-opacity:1"
         offset="1"
         id="stop3714" />
    </linearGradient>
    <linearGradient
       id="linearGradient3698">
      <stop
         style="stop-color:#000000;stop-opacity:1;"
         offset="0"
         id="stop3700" />
      <stop
         style="stop-color:#ffffff;stop-opacity:0;"
         offset="1"
         id="stop3702" />
    </linearGradient>
    <linearGradient
       inkscape:collect="always"
       id="linearGradient3690">
      <stop
         style="stop-color:#ffffff;stop-opacity:1;"
         offset="0"
         id="stop3692" />
      <stop
         style="stop-color:#ffffff;stop-opacity:0;"
         offset="1"
         id="stop3694" />
    </linearGradient>
    <linearGradient
       inkscape:collect="always"
       id="linearGradient3682">
      <stop
         style="stop-color:#ffffff;stop-opacity:1;"
         offset="0"
         id="stop3684" />
      <stop
         style="stop-color:#ffffff;stop-opacity:0;"
         offset="1"
         id="stop3686" />
    </linearGradient>
    <linearGradient
       id="linearGradient3650">
      <stop
         style="stop-color:#ffffff;stop-opacity:0;"
         offset="0"
         id="stop3652" />
      <stop
         id="stop3664"
         offset="0.5"
         style="stop-color:#ffffff;stop-opacity:1;" />
      <stop
         style="stop-color:#ffffff;stop-opacity:0;"
         offset="1"
         id="stop3654" />
    </linearGradient>
    <linearGradient
       id="linearGradient3620">
      <stop
         style="stop-color:#ffffff;stop-opacity:0.70634921"
         offset="0"
         id="stop3622" />
      <stop
         style="stop-color:#eeeeec;stop-opacity:0"
         offset="1"
         id="stop3624" />
    </linearGradient>
    <radialGradient
       inkscape:collect="always"
       xlink:href="#linearGradient3620"
       id="radialGradient3626"
       cx="37.86552"
       cy="37.558033"
       fx="37.86552"
       fy="37.558033"
       r="4.7767859"
       gradientTransform="matrix(2.1753245,-0.94626063,0.18650695,0.38962057,-50.229759,58.736978)"
       gradientUnits="userSpaceOnUse" />
    <linearGradient
       inkscape:collect="always"
       xlink:href="#linearGradient3650"
       id="linearGradient3662"
       x1="-5"
       y1="1033.3622"
       x2="53"
       y2="1033.3622"
       gradientUnits="userSpaceOnUse"
       gradientTransform="translate(0,-4.9999309)" />
    <radialGradient
       inkscape:collect="always"
       xlink:href="#linearGradient3682"
       id="radialGradient3688"
       cx="36.026787"
       cy="31.75"
       fx="36.026787"
       fy="31.75"
       r="0.84821427"
       gradientTransform="matrix(1,0,0,0.73684212,0,8.3552627)"
       gradientUnits="userSpaceOnUse" />
    <linearGradient
       inkscape:collect="always"
       xlink:href="#linearGradient3690"
       id="linearGradient3696"
       x1="35.178574"
       y1="31.75"
       x2="36.875"
       y2="31.75"
       gradientUnits="userSpaceOnUse" />
    <radialGradient
       inkscape:collect="always"
       xlink:href="#linearGradient3698"
       id="radialGradient3704"
       cx="37.723213"
       cy="34.558739"
       fx="37.723213"
       fy="34.558739"
       r="4.7767859"
       gradientTransform="matrix(1.3333334,-1.2006666e-7,1.259541e-7,1.2710093,-12.57441,-9.7637765)"
       gradientUnits="userSpaceOnUse" />
    <radialGradient
       inkscape:collect="always"
       xlink:href="#linearGradient3710"
       id="radialGradient3716"
       cx="36.992073"
       cy="32.211014"
       fx="36.992073"
       fy="32.211014"
       r="4.7767859"
       gradientTransform="matrix(1.4591836,3.6251185e-7,-3.6034015e-7,1.3180413,-16.986143,-10.153337)"
       gradientUnits="userSpaceOnUse" />
    <linearGradient
       inkscape:collect="always"
       xlink:href="#linearGradient3722"
       id="linearGradient3728"
       x1="35.29493"
       y1="30.664221"
       x2="40.407391"
       y2="39.44611"
       gradientUnits="userSpaceOnUse" />
    <radialGradient
       inkscape:collect="always"
       xlink:href="#linearGradient3730"
       id="radialGradient3736"
       cx="34.467476"
       cy="27.349129"
       fx="34.467476"
       fy="27.349129"
       r="5.2431703"
       gradientTransform="matrix(1.2499266,-0.44594349,0.26790799,0.68237448,-16.90523,25.339575)"
       gradientUnits="userSpaceOnUse" />
    <radialGradient
       inkscape:collect="always"
       xlink:href="#linearGradient3750"
       id="radialGradient3756"
       cx="19.267862"
       cy="1021.5743"
       fx="19.267862"
       fy="1021.5743"
       r="23.000002"
       gradientTransform="matrix(0.99958261,-0.02888967,0.00776397,0.26863352,-7.9234344,750.079)"
       gradientUnits="userSpaceOnUse" />
    <radialGradient
       inkscape:collect="always"
       xlink:href="#linearGradient3760"
       id="radialGradient3766"
       cx="44.50893"
       cy="31.48947"
       fx="44.50893"
       fy="31.48947"
       r="1.2163708"
       gradientTransform="matrix(1.3212596,2.3236956e-6,-2.2013572e-6,1.3946896,-14.298853,-12.413656)"
       gradientUnits="userSpaceOnUse" />
    <linearGradient
       inkscape:collect="always"
       xlink:href="#linearGradient3844"
       id="linearGradient3850"
       x1="37"
       y1="1029.3622"
       x2="37"
       y2="1032.3622"
       gradientUnits="userSpaceOnUse"
       gradientTransform="translate(0,-6)" />
    <linearGradient
       inkscape:collect="always"
       xlink:href="#linearGradient3844"
       id="linearGradient3863"
       gradientUnits="userSpaceOnUse"
       x1="37"
       y1="1029.3622"
       x2="37"
       y2="1032.3622"
       gradientTransform="matrix(-1,0,0,1.5,50,-524.1811)" />
    <radialGradient
       inkscape:collect="always"
       xlink:href="#linearGradient3873"
       id="radialGradient3879"
       cx="19.999998"
       cy="1012.8622"
       fx="19.999998"
       fy="1012.8622"
       r="22"
       gradientTransform="matrix(1.848639,-0.30810559,0.22727205,1.3636365,-247.16804,-353.65157)"
       gradientUnits="userSpaceOnUse" />
    <linearGradient
       inkscape:collect="always"
       xlink:href="#linearGradient3910"
       id="linearGradient3916"
       x1="24"
       y1="1041.3622"
       x2="24"
       y2="1047.3622"
       gradientUnits="userSpaceOnUse" />
    <radialGradient
       inkscape:collect="always"
       xlink:href="#linearGradient3922"
       id="radialGradient3928"
       cx="7.5"
       cy="40.5"
       fx="7.5"
       fy="40.5"
       r="2.5"
       gradientUnits="userSpaceOnUse" />
    <radialGradient
       inkscape:collect="always"
       xlink:href="#linearGradient3922"
       id="radialGradient3933"
       gradientUnits="userSpaceOnUse"
       cx="7.5"
       cy="40.5"
       fx="7.5"
       fy="40.5"
       r="2.5"
       gradientTransform="matrix(-1.2,0,0,1.2,51,995.7622)" />
    <radialGradient
       inkscape:collect="always"
       xlink:href="#linearGradient3940"
       id="radialGradient3946"
       cx="24"
       cy="1041.8622"
       fx="24"
       fy="1041.8622"
       r="22.000001"
       gradientTransform="matrix(1,0,0,0.1590909,0,870.1114)"
       gradientUnits="userSpaceOnUse" />
    <linearGradient
       inkscape:collect="always"
       xlink:href="#linearGradient3962"
       id="linearGradient3968"
       x1="7"
       y1="1031.3622"
       x2="7"
       y2="1041.3622"
       gradientUnits="userSpaceOnUse"
       gradientTransform="translate(0,-2068.7244)" />
    <linearGradient
       inkscape:collect="always"
       xlink:href="#linearGradient3976"
       id="linearGradient3974"
       gradientUnits="userSpaceOnUse"
       gradientTransform="matrix(-3.7777777,0,0,1,161.88889,-9)"
       x1="37"
       y1="1029.3622"
       x2="37"
       y2="1032.3622" />
  </defs>
  <sodipodi:namedview
     id="base"
     pagecolor="#ffffff"
     bordercolor="#666666"
     borderopacity="1.0"
     inkscape:pageopacity="0.0"
     inkscape:pageshadow="2"
     inkscape:zoom="7.919596"
     inkscape:cx="-1.0068549"
     inkscape:cy="8.6235952"
     inkscape:document-units="px"
     inkscape:current-layer="layer1"
     showgrid="true"
     borderlayer="true"
     inkscape:showpageshadow="false"
     inkscape:snap-bbox="true"
     inkscape:snap-nodes="true"
     inkscape:object-paths="false"
     inkscape:window-width="1680"
     inkscape:window-height="1025"
     inkscape:window-x="1680"
     inkscape:window-y="0"
     inkscape:window-maximized="1">
    <inkscape:grid
       type="xygrid"
       id="grid2830"
       empspacing="5"
       visible="true"
       enabled="true"
       snapvisiblegridlinesonly="true" />
  </sodipodi:namedview>
  <metadata
     id="metadata7">
    <rdf:RDF>
      <cc:Work
         rdf:about="">
        <dc:format>image/svg+xml</dc:format>
        <dc:type
           rdf:resource="http://purl.org/dc/dcmitype/StillImage" />
        <dc:title>projector</dc:title>
        <dc:date>2010-02-15</dc:date>
        <dc:creator>
          <cc:Agent>
            <dc:title>Sebastian Kraft</dc:title>
          </cc:Agent>
        </dc:creator>
        <dc:subject>
          <rdf:Bag>
            <rdf:li>device</rdf:li>
            <rdf:li>projector</rdf:li>
          </rdf:Bag>
        </dc:subject>
      </cc:Work>
    </rdf:RDF>
  </metadata>
  <g
     inkscape:label="Ebene 1"
     inkscape:groupmode="layer"
     id="layer1"
     transform="translate(0,-1004.3622)">
    <g
       id="g3935"
       style="opacity:0.47999998"
       transform="translate(0,-6)">
      <rect
         y="1041.3622"
         x="6"
         height="6"
         width="36"
         id="rect3908"
         style="color:#000000;fill:url(#linearGradient3916);fill-opacity:1;fill-rule:nonzero;stroke:none;stroke-width:1;marker:none;visibility:visible;display:inline;overflow:visible;enable-background:accumulate" />
      <path
         sodipodi:nodetypes="cscc"
         id="path3920"
         d="M 7.5,43 C 6.1192881,43 5,41.880712 5,40.5 5,39.119288 6.1192881,38 7.5,38 c 0,0 0,5 0,5 z"
         style="color:#000000;fill:url(#radialGradient3928);fill-opacity:1;fill-rule:nonzero;stroke:none;stroke-width:1;marker:none;visibility:visible;display:inline;overflow:visible;enable-background:accumulate"
         transform="matrix(1.2,0,0,1.2,-3,995.7622)" />
      <path
         style="color:#000000;fill:url(#radialGradient3933);fill-opacity:1;fill-rule:nonzero;stroke:none;stroke-width:1;marker:none;visibility:visible;display:inline;overflow:visible;enable-background:accumulate"
         d="m 42,1047.3622 c 1.656854,0 3,-1.3431 3,-3 0,-1.6569 -1.343146,-3 -3,-3 0,0 0,6 0,6 z"
         id="path3931"
         sodipodi:nodetypes="cscc" />
    </g>
    <path
       style="color:#000000;fill:#555753;fill-opacity:1;fill-rule:nonzero;stroke:url(#radialGradient3946);stroke-width:0.99999994;stroke-linecap:round;stroke-linejoin:round;stroke-miterlimit:4;stroke-opacity:1;marker:none;visibility:visible;display:inline;overflow:visible;enable-background:accumulate"
       d="m 2.4999999,1032.8622 43.0000011,0 -4.195122,6 -34.6097571,0 -4.195122,-6 z"
       id="rect3607"
       sodipodi:nodetypes="ccccc" />
    <path
       style="color:#000000;fill:url(#radialGradient3756);fill-opacity:1;fill-rule:nonzero;stroke:#888a85;stroke-width:1;stroke-linecap:round;stroke-linejoin:round;stroke-miterlimit:4;stroke-opacity:1;marker:none;visibility:visible;display:inline;overflow:visible;enable-background:accumulate"
       d="m 1.5000001,1026.8622 5.250001,-6 34.5000019,0 5.250001,6 0,10 -45.0000039,0 0,-10 z"
       id="rect2832"
       sodipodi:nodetypes="ccccccc" />
    <rect
       y="1028.3622"
       x="21"
       height="6.0000172"
       width="1"
       id="rect3859"
       style="color:#000000;fill:#babdb6;fill-opacity:1;fill-rule:nonzero;stroke:none;stroke-width:1;marker:none;visibility:visible;display:inline;overflow:visible;enable-background:accumulate" />
    <rect
       style="color:#000000;fill:#babdb6;fill-opacity:1;fill-rule:nonzero;stroke:none;stroke-width:1;marker:none;visibility:visible;display:inline;overflow:visible;enable-background:accumulate"
       id="rect3836"
       width="42"
       height="1.0000174"
       x="3"
       y="1034.3622" />
    <rect
       y="-1034.3622"
       x="3"
       height="6"
       width="18"
       id="rect3834"
       style="color:#000000;fill:url(#linearGradient3968);fill-opacity:1;fill-rule:nonzero;stroke:none;stroke-width:1;marker:none;visibility:visible;display:inline;overflow:visible;enable-background:accumulate"
       transform="scale(1,-1)" />
    <rect
       style="opacity:0.8;color:#000000;fill:url(#linearGradient3662);fill-opacity:1;fill-rule:nonzero;stroke:none;stroke-width:1;marker:none;visibility:visible;display:inline;overflow:visible;enable-background:accumulate"
       id="rect3638"
       width="42"
       height="0.99994826"
       x="3"
       y="1027.3623" />
    <path
       sodipodi:type="arc"
       style="color:#000000;fill:#000000;fill-opacity:1;fill-rule:nonzero;stroke:url(#radialGradient3766);stroke-width:0.82559872;stroke-linecap:round;stroke-linejoin:round;stroke-miterlimit:4;stroke-opacity:1;stroke-dasharray:none;marker:none;visibility:visible;display:inline;overflow:visible;enable-background:accumulate"
       id="path3758"
       sodipodi:cx="44.107143"
       sodipodi:cy="31.080357"
       sodipodi:rx="0.8035714"
       sodipodi:ry="0.84821427"
       d="m 44.910715,31.080357 a 0.8035714,0.84821427 0 1 1 -1.607143,0 0.8035714,0.84821427 0 1 1 1.607143,0 z"
       transform="matrix(1.2444445,0,0,1.1789258,-11.388892,992.22075)" />
    <rect
       y="1026.3623"
       x="3"
       height="0.99994826"
       width="42"
       id="rect3640"
       style="opacity:0.8;color:#000000;fill:#babdb6;fill-opacity:1;fill-rule:nonzero;stroke:none;stroke-width:1;marker:none;visibility:visible;display:inline;overflow:visible;enable-background:accumulate" />
    <path
       sodipodi:nodetypes="ccccc"
       id="path3861"
       d="m 18,1021.3622 -9,0 -2,3 12,0 -1,-3 z"
       style="color:#000000;fill:url(#linearGradient3863);fill-opacity:1;fill-rule:nonzero;stroke:none;stroke-width:1;marker:none;visibility:visible;display:inline;overflow:visible;enable-background:accumulate" />
    <path
       style="color:#000000;fill:url(#linearGradient3974);fill-opacity:1;fill-rule:nonzero;stroke:none;stroke-width:1;marker:none;visibility:visible;display:inline;overflow:visible;enable-background:accumulate"
       d="m 41,1021.3622 -34,0 0,2 34,0 0,-2 z"
       id="path3970"
       sodipodi:nodetypes="ccccc" />
    <path
       sodipodi:nodetypes="ccccccc"
       id="path3612"
       d="m 2.5,1027.1122 4.75,-5.25 33.5,0 4.75,5.25 0,8.75 -43,0 0,-8.75 z"
       style="color:#000000;fill:none;stroke:url(#radialGradient3879);stroke-width:1;stroke-linecap:round;stroke-linejoin:round;stroke-miterlimit:4;stroke-opacity:1;marker:none;visibility:visible;display:inline;overflow:visible;enable-background:accumulate" />
    <path
       sodipodi:type="arc"
       style="color:#000000;fill:url(#linearGradient3728);fill-opacity:1;stroke:url(#radialGradient3736);stroke-width:0.9327687;stroke-linecap:round;stroke-linejoin:round;stroke-miterlimit:4;stroke-opacity:1;stroke-dasharray:none;marker:none;visibility:visible;display:inline;overflow:visible;enable-background:accumulate"
       id="path3614"
       sodipodi:cx="37.723213"
       sodipodi:cy="34.160713"
       sodipodi:rx="4.7767859"
       sodipodi:ry="4.5535712"
       d="m 42.499999,34.160713 a 4.7767859,4.5535712 0 1 1 -9.553572,0 4.7767859,4.5535712 0 1 1 9.553572,0 z"
       transform="matrix(1.0467287,0,0,1.0980395,-1.9859717,994.3524)" />
    <path
       sodipodi:type="arc"
       style="color:#000000;fill:#2e3436;fill-opacity:1;stroke:none;stroke-width:1.33252525;marker:none;visibility:visible;display:inline;overflow:visible;enable-background:accumulate"
       id="path3676"
       sodipodi:cx="37.723213"
       sodipodi:cy="34.160713"
       sodipodi:rx="4.7767859"
       sodipodi:ry="4.5535712"
       d="m 42.499999,34.160713 a 4.7767859,4.5535712 0 1 1 -9.553572,0 4.7767859,4.5535712 0 1 1 9.553572,0 z"
       transform="matrix(0.73271025,0,0,0.7686232,9.859815,1005.6055)" />
    <path
       sodipodi:type="arc"
       style="color:#000000;fill:url(#radialGradient3716);fill-opacity:1;stroke:none;stroke-width:1.33252525;marker:none;visibility:visible;display:inline;overflow:visible;enable-background:accumulate"
       id="path3706"
       sodipodi:cx="37.723213"
       sodipodi:cy="34.160713"
       sodipodi:rx="4.7767859"
       sodipodi:ry="4.5535712"
       d="m 42.499999,34.160713 a 4.7767859,4.5535712 0 1 1 -9.553572,0 4.7767859,4.5535712 0 1 1 9.553572,0 z"
       transform="matrix(0.7327103,0,0,0.76863115,9.8598129,1005.6052)" />
    <path
       transform="matrix(0.62803737,0,0,0.65883318,13.308412,1008.856)"
       d="m 42.499999,34.160713 a 4.7767859,4.5535712 0 1 1 -9.553572,0 4.7767859,4.5535712 0 1 1 9.553572,0 z"
       sodipodi:ry="4.5535712"
       sodipodi:rx="4.7767859"
       sodipodi:cy="34.160713"
       sodipodi:cx="37.723213"
       id="path3666"
       style="color:#000000;fill:url(#radialGradient3704);fill-opacity:1;stroke:none;stroke-width:1.33252525;marker:none;visibility:visible;display:inline;overflow:visible;enable-background:accumulate"
       sodipodi:type="arc" />
    <path
       transform="matrix(0.94205604,0,0,0.98823454,1.9626191,998.1034)"
       d="m 42.499999,34.160713 a 4.7767859,4.5535712 0 1 1 -9.553572,0 4.7767859,4.5535712 0 1 1 9.553572,0 z"
       sodipodi:ry="4.5535712"
       sodipodi:rx="4.7767859"
       sodipodi:cy="34.160713"
       sodipodi:cx="37.723213"
       id="path3616"
       style="color:#000000;fill:url(#radialGradient3626);fill-opacity:1;stroke:none;stroke-width:1.33252525;marker:none;visibility:visible;display:inline;overflow:visible;enable-background:accumulate"
       sodipodi:type="arc" />
    <path
       sodipodi:type="arc"
       style="color:#000000;fill:url(#linearGradient3696);fill-opacity:1;fill-rule:nonzero;stroke:none;stroke-width:1;marker:none;visibility:visible;display:inline;overflow:visible;enable-background:accumulate"
       id="path3678"
       sodipodi:cx="36.026787"
       sodipodi:cy="31.75"
       sodipodi:rx="0.84821427"
       sodipodi:ry="0.625"
       d="m 36.875001,31.75 a 0.84821427,0.625 0 1 1 -1.696428,0 0.84821427,0.625 0 1 1 1.696428,0 z"
       transform="matrix(-1.1789485,0,0,0.8,78.473727,1004.4622)" />
    <path
       transform="matrix(1.7684216,0,0,1.6,-25.210548,982.5622)"
       d="m 36.875001,31.75 a 0.84821427,0.625 0 1 1 -1.696428,0 0.84821427,0.625 0 1 1 1.696428,0 z"
       sodipodi:ry="0.625"
       sodipodi:rx="0.84821427"
       sodipodi:cy="31.75"
       sodipodi:cx="36.026787"
       id="path3680"
       style="color:#000000;fill:url(#radialGradient3688);fill-opacity:1;fill-rule:nonzero;stroke:none;stroke-width:1;marker:none;visibility:visible;display:inline;overflow:visible;enable-background:accumulate"
       sodipodi:type="arc" />
    <path
       style="color:#000000;fill:#000000;fill-opacity:0.28240739;stroke:none;stroke-width:0.9327687;marker:none;visibility:visible;display:inline;overflow:visible;enable-background:accumulate"
       d="m 42.9375,1032.6122 c -0.368733,2.6795 -2.656675,4.75 -5.4375,4.75 -1.502962,0 -2.851011,-0.6167 -3.84375,-1.5937 0.854618,1.5312 2.465608,2.5937 4.34375,2.5937 2.761424,0 5,-2.2386 5,-5 0,-0.2589 -0.02456,-0.5017 -0.0625,-0.75 z"
       id="path3738" />
    <path
       style="color:#000000;fill:#555753;fill-opacity:1;fill-rule:nonzero;stroke:none;stroke-width:1;marker:none;visibility:visible;display:inline;overflow:visible;enable-background:accumulate"
       d="m 3,1029.3622 0,1 1,0 0,-1 -1,0 z m 2,0 0,1 1,0 0,-1 -1,0 z m 2,0 0,1 1,0 0,-1 -1,0 z m 2,0 0,1 1,0 0,-1 -1,0 z m 2,0 0,1 1,0 0,-1 -1,0 z m 2,0 0,1 1,0 0,-1 -1,0 z m 2,0 0,1 1,0 0,-1 -1,0 z m 2,0 0,1 1,0 0,-1 -1,0 z m 2,0 0,1 1,0 0,-1 -1,0 z m -16,2 0,1 1,0 0,-1 -1,0 z m 2,0 0,1 1,0 0,-1 -1,0 z m 2,0 0,1 1,0 0,-1 -1,0 z m 2,0 0,1 1,0 0,-1 -1,0 z m 2,0 0,1 1,0 0,-1 -1,0 z m 2,0 0,1 1,0 0,-1 -1,0 z m 2,0 0,1 1,0 0,-1 -1,0 z m 2,0 0,1 1,0 0,-1 -1,0 z m 2,0 0,1 1,0 0,-1 -1,0 z m -16,2 0,1 1,0 0,-1 -1,0 z m 2,0 0,1 1,0 0,-1 -1,0 z m 2,0 0,1 1,0 0,-1 -1,0 z m 2,0 0,1 1,0 0,-1 -1,0 z m 2,0 0,1 1,0 0,-1 -1,0 z m 2,0 0,1 1,0 0,-1 -1,0 z m 2,0 0,1 1,0 0,-1 -1,0 z m 2,0 0,1 1,0 0,-1 -1,0 z m 2,0 0,1 1,0 0,-1 -1,0 z"
       id="rect3796" />
    <path
       style="color:#000000;fill:url(#linearGradient3850);fill-opacity:1;fill-rule:nonzero;stroke:none;stroke-width:1;marker:none;visibility:visible;display:inline;overflow:visible;enable-background:accumulate"
       d="m 32,1024.3622 9,0 2,2 -12,0 1,-2 z"
       id="rect3842"
       sodipodi:nodetypes="ccccc" />
    <path
       id="path3960"
       d="m 21,1028.3622 0,1 -1,0 0,-1 1,0 z m -2,0 0,1 -1,0 0,-1 1,0 z m -2,0 0,1 -1,0 0,-1 1,0 z m -2,0 0,1 -1,0 0,-1 1,0 z m -2,0 0,1 -1,0 0,-1 1,0 z m -2,0 0,1 -1,0 0,-1 1,0 z m -2,0 0,1 -1,0 0,-1 1,0 z m -2,0 0,1 -1,0 0,-1 1,0 z m -2,0 0,1 -1,0 0,-1 1,0 z m 16,2 0,1 -1,0 0,-1 1,0 z m -2,0 0,1 -1,0 0,-1 1,0 z m -2,0 0,1 -1,0 0,-1 1,0 z m -2,0 0,1 -1,0 0,-1 1,0 z m -2,0 0,1 -1,0 0,-1 1,0 z m -2,0 0,1 -1,0 0,-1 1,0 z m -2,0 0,1 -1,0 0,-1 1,0 z m -2,0 0,1 -1,0 0,-1 1,0 z m -2,0 0,1 -1,0 0,-1 1,0 z m 16,2 0,1 -1,0 0,-1 1,0 z m -2,0 0,1 -1,0 0,-1 1,0 z m -2,0 0,1 -1,0 0,-1 1,0 z m -2,0 0,1 -1,0 0,-1 1,0 z m -2,0 0,1 -1,0 0,-1 1,0 z m -2,0 0,1 -1,0 0,-1 1,0 z m -2,0 0,1 -1,0 0,-1 1,0 z m -2,0 0,1 -1,0 0,-1 1,0 z m -2,0 0,1 -1,0 0,-1 1,0 z"
       style="color:#000000;fill:#2e3436;fill-opacity:1;fill-rule:nonzero;stroke:none;stroke-width:1;marker:none;visibility:visible;display:inline;overflow:visible;enable-background:accumulate" />
  </g>
</svg>
