<?xml version="1.0" standalone="no"?>
<!DOCTYPE svg PUBLIC "-//W3C//DTD SVG 20010904//EN"
 "http://www.w3.org/TR/2001/REC-SVG-20010904/DTD/svg10.dtd">
<svg version="1.0" xmlns="http://www.w3.org/2000/svg"
 width="225.000000pt" height="225.000000pt" viewBox="0 0 225.000000 225.000000"
 preserveAspectRatio="xMidYMid meet">
<metadata>
Created by potrace 1.10, written by Peter Selinger 2001-2011
</metadata>
<g transform="translate(0.000000,225.000000) scale(0.100000,-0.100000)"
fill="#000000" stroke="none">
<path d="M1006 2224 c-9 -35 -4 -534 5 -534 4 0 6 103 4 228 -3 125 -1 251 4
280 8 53 -2 73 -13 26z"/>
<path d="M1078 2231 c12 -11 22 -24 22 -30 0 -6 5 -11 11 -11 6 0 8 -9 4 -20
-3 -11 -2 -28 4 -37 9 -15 10 -13 11 15 0 39 -23 87 -45 96 -28 11 -31 6 -7
-13z"/>
<path d="M1048 2203 c6 -2 18 -2 25 0 6 3 1 5 -13 5 -14 0 -19 -2 -12 -5z"/>
<path d="M1035 2169 c-4 -5 5 -9 18 -9 28 0 45 -29 25 -42 -17 -10 -26 -10
-33 2 -3 6 -1 10 5 10 6 0 8 5 4 11 -17 28 -22 -29 -23 -247 -2 -210 0 -234
16 -242 11 -7 25 -6 41 1 19 9 23 17 20 44 -2 18 1 35 7 37 6 3 5 5 -2 5 -18
1 -16 28 2 35 9 3 15 17 14 33 l-1 28 -8 -30 c-7 -27 -8 -26 -10 18 -2 26 -3
53 -4 60 -1 6 4 11 10 10 6 -1 11 4 11 12 0 7 -6 11 -12 8 -8 -2 -12 5 -11 19
3 29 -11 48 -35 48 -11 0 -19 5 -19 10 0 14 23 13 38 -2 6 -6 15 -8 19 -4 4 4
3 10 -2 14 -15 11 -16 29 -1 41 11 9 10 21 -2 68 -8 32 -15 59 -17 61 -7 8
-45 9 -50 1z m65 -78 c3 -1 -2 -6 -12 -11 -16 -10 -48 -4 -48 9 0 6 44 7 60 2z
m-10 -41 c0 -5 -11 -10 -25 -10 -14 0 -25 5 -25 10 0 6 11 10 25 10 14 0 25
-4 25 -10z m-15 -30 c3 -5 -3 -10 -14 -10 -12 0 -21 5 -21 10 0 6 6 10 14 10
8 0 18 -4 21 -10z m10 -60 c4 -6 -5 -10 -19 -10 -14 0 -26 5 -26 10 0 6 9 10
19 10 11 0 23 -4 26 -10z m5 -29 c3 -1 -2 -6 -10 -11 -10 -6 -11 -10 -2 -10 6
0 12 -4 12 -10 0 -5 -11 -10 -25 -10 -25 0 -36 19 -12 21 10 0 10 2 0 6 -32
12 0 25 37 14z m-5 -61 c4 -6 -5 -10 -20 -10 -15 0 -24 4 -20 10 3 6 12 10 20
10 8 0 17 -4 20 -10z m0 -30 c4 -6 -6 -10 -22 -10 -22 0 -25 2 -13 10 19 12
27 12 35 0z m5 -40 c12 -8 9 -10 -12 -10 -15 0 -30 5 -33 10 -8 13 25 13 45 0z
m0 -30 c0 -5 -11 -10 -25 -10 -14 0 -25 5 -25 10 0 6 11 10 25 10 14 0 25 -4
25 -10z m0 -34 c0 -9 -8 -12 -25 -8 -14 2 -25 8 -25 13 0 5 11 9 25 9 14 0 25
-6 25 -14z m-10 -26 c20 -12 9 -21 -18 -13 -12 3 -19 9 -16 14 7 11 15 11 34
-1z m5 -30 c17 -7 15 -9 -12 -9 -18 -1 -33 4 -33 9 0 12 17 12 45 0z"/>
<path d="M1080 1640 c-8 -5 -33 -6 -56 -3 -44 6 -87 -13 -98 -44 -9 -22 12
-43 41 -43 19 0 24 -4 19 -16 -5 -13 -4 -14 7 -5 12 9 13 6 9 -16 -3 -16 -12
-33 -20 -39 -12 -9 -12 -15 -2 -33 13 -25 4 -44 -10 -21 -8 13 -10 12 -10 -2
0 -9 5 -18 12 -20 17 -6 -29 -96 -53 -103 -10 -4 -19 -11 -19 -16 0 -13 18
-11 23 4 3 7 6 5 6 -6 1 -10 -5 -20 -13 -23 -8 -3 -12 -13 -9 -25 4 -15 0 -22
-16 -26 -17 -4 -21 -13 -21 -48 0 -33 -4 -45 -17 -48 -15 -3 -14 -6 6 -14 l25
-10 -27 -5 c-19 -4 -27 -1 -27 9 0 8 -5 11 -10 8 -8 -5 -7 -11 1 -21 6 -8 9
-18 5 -22 -4 -4 -14 2 -22 12 -11 16 -14 17 -14 4 0 -9 7 -18 15 -22 8 -3 15
-10 15 -16 0 -6 -4 -8 -10 -5 -5 3 -10 -1 -10 -9 0 -8 -9 -24 -20 -34 -13 -12
-18 -25 -14 -35 3 -10 1 -17 -5 -17 -6 0 -11 -10 -11 -23 0 -13 -7 -32 -15
-43 -16 -21 -20 -12 -6 15 7 12 6 18 -2 18 -7 0 -13 -7 -14 -16 -4 -71 -7 -80
-26 -69 -17 9 -17 7 -7 -12 15 -28 3 -41 -16 -16 -17 24 -19 14 -3 -13 9 -14
9 -25 -2 -50 l-14 -32 -6 33 c-6 31 -6 31 -8 -10 -1 -41 -21 -90 -48 -119 -19
-21 -25 -15 -19 20 l6 32 -14 -35 c-11 -31 -11 -36 3 -42 9 -4 11 -7 4 -7 -7
-1 -13 -9 -13 -19 0 -22 -29 -80 -59 -118 -12 -16 -20 -23 -16 -17 4 9 1 11
-9 7 -19 -7 -21 -21 -3 -27 9 -3 9 -8 -2 -21 -8 -9 -25 -38 -38 -64 -23 -46
-23 -47 -18 -12 6 47 -10 17 -20 -34 -3 -22 -14 -49 -22 -60 -14 -20 -15 -19
-10 19 7 46 -7 27 -16 -22 -5 -27 -4 -31 10 -26 13 5 13 2 -3 -22 -16 -25 -19
-26 -25 -9 -5 12 -8 -3 -8 -38 -1 -31 3 -60 9 -63 6 -3 7 1 4 9 -3 9 4 33 17
53 12 21 44 76 69 123 26 47 70 125 98 173 29 49 52 93 52 99 0 5 15 35 34 66
48 82 115 205 160 297 87 176 93 187 107 195 6 4 21 0 33 -11 25 -21 137 -81
143 -76 3 4 -69 72 -106 100 -9 7 -24 21 -33 32 -17 20 -15 24 24 105 23 47
62 139 87 204 25 66 52 121 59 124 6 2 12 -2 12 -9 0 -7 9 -33 21 -58 11 -25
24 -55 29 -66 4 -11 31 -69 59 -128 28 -60 51 -114 51 -120 0 -11 23 -57 96
-197 16 -30 32 -57 35 -60 4 -3 10 -16 14 -30 4 -14 18 -41 30 -60 12 -19 45
-82 73 -140 29 -58 70 -136 92 -173 22 -38 40 -73 40 -78 0 -5 5 -9 10 -9 6 0
10 -7 10 -15 0 -9 6 -12 15 -9 8 4 15 13 15 21 0 8 -4 12 -9 9 -11 -7 -44 61
-36 74 3 6 1 10 -4 10 -6 0 -11 8 -11 18 0 14 -2 15 -10 2 -9 -13 -10 -13 -10
0 0 9 6 22 13 29 10 12 9 13 -7 7 -19 -7 -45 17 -46 42 0 8 -9 25 -20 39 -11
14 -20 34 -20 45 0 11 -4 16 -10 13 -6 -4 -8 6 -6 25 3 23 0 30 -10 26 -9 -3
-14 1 -14 12 0 9 -7 25 -14 35 -8 10 -12 28 -9 40 4 17 2 19 -5 8 -8 -12 -17
-1 -40 50 -16 35 -28 67 -25 72 9 15 23 6 23 -16 0 -23 29 -72 30 -50 0 6 -4
15 -10 18 -5 3 -10 18 -10 32 0 16 -7 27 -19 30 -11 3 -22 12 -24 22 -2 9 -3
6 -2 -6 1 -13 -1 -23 -5 -23 -13 0 -18 48 -7 59 8 8 6 11 -6 11 -9 0 -17 5
-17 10 0 6 5 10 10 10 6 0 10 5 10 12 0 9 -3 9 -12 0 -7 -7 -18 -12 -26 -12
-12 0 -12 3 -2 15 13 15 7 30 -11 30 -5 0 -9 5 -8 10 1 6 5 9 10 7 13 -3 11 8
-5 24 -11 11 -16 11 -19 1 -2 -6 -3 -1 -2 13 2 14 -5 45 -15 70 -13 31 -19 38
-19 23 -1 -12 3 -24 8 -27 12 -8 21 -46 10 -46 -5 0 -9 7 -9 15 0 8 -10 31
-22 52 -13 25 -21 54 -20 83 0 34 -1 39 -7 20 -5 -17 -9 -21 -15 -12 -4 6 -5
16 -2 21 3 5 -1 15 -10 22 -23 19 -42 69 -43 116 -1 16 -5 21 -17 16 -15 -6
-15 -4 0 19 9 13 13 28 9 32 -4 4 1 4 11 0 11 -4 14 -9 6 -14 -6 -4 3 -7 20
-7 24 0 35 7 47 30 13 26 13 31 0 44 -9 9 -35 16 -61 17 -32 1 -45 5 -41 14 5
14 -4 15 -25 2z m78 -35 c45 -8 57 -24 20 -26 -13 -1 -36 -3 -53 -4 -16 -2
-24 -1 -17 2 30 12 7 21 -50 21 -35 0 -56 -3 -48 -6 8 -3 20 -12 26 -20 6 -8
16 -12 23 -8 16 10 51 -3 51 -20 0 -8 -7 -14 -15 -14 -8 0 -15 5 -15 11 0 18
-33 5 -36 -15 -1 -10 -8 -24 -14 -30 -9 -8 -11 -1 -8 32 l4 42 -43 0 c-44 0
-59 18 -23 27 11 3 20 9 20 14 0 9 112 5 178 -6z m-153 -145 c3 -5 -1 -10 -9
-10 -9 0 -16 5 -16 10 0 6 4 10 9 10 6 0 13 -4 16 -10z"/>
<path d="M1164 1435 c-8 -19 2 -45 17 -45 8 0 8 4 -1 15 -7 8 -10 22 -6 30 3
8 3 15 0 15 -2 0 -7 -7 -10 -15z"/>
<path d="M1050 1416 c-5 -15 -17 -51 -26 -79 -9 -29 -33 -89 -55 -135 l-39
-83 50 -48 c28 -27 62 -56 75 -65 14 -9 25 -23 25 -31 0 -8 4 -15 10 -15 5 0
7 6 5 13 -17 43 -11 337 6 337 5 0 9 -135 9 -301 0 -236 -3 -300 -12 -296 -9
3 -13 34 -13 110 1 72 -2 103 -10 98 -17 -14 -48 -4 -123 39 -39 22 -74 40
-77 40 -2 0 -22 -37 -44 -82 -21 -46 -44 -94 -50 -108 -6 -14 -27 -52 -45 -85
-18 -33 -45 -82 -60 -110 -15 -27 -37 -66 -48 -85 -11 -19 -36 -66 -56 -105
-19 -38 -40 -77 -47 -85 -7 -8 -30 -49 -51 -90 -21 -41 -45 -81 -52 -89 -25
-27 -2 -23 65 10 37 19 70 37 73 41 3 4 42 21 85 38 44 17 87 35 95 39 8 4 39
14 68 21 l52 14 0 51 c0 191 86 325 208 325 117 0 202 -127 202 -300 l0 -78
48 -11 c41 -10 64 -18 147 -51 71 -29 214 -102 225 -114 26 -33 27 -3 1 49
-18 36 -43 66 -72 87 -24 17 -45 35 -47 40 -2 4 -9 8 -14 8 -6 0 -40 19 -74
43 -56 37 -63 46 -64 75 0 30 2 32 33 32 17 0 44 -7 59 -14 39 -20 41 -7 9 44
-15 25 -52 95 -82 155 -30 61 -56 112 -60 115 -5 5 -22 37 -105 200 -30 57
-54 108 -54 112 0 3 -22 53 -49 110 -27 57 -62 132 -76 168 -15 36 -29 67 -31
69 -2 2 -8 -8 -14 -23z m16 -383 c-2 -3 -14 1 -26 7 -22 12 -22 16 -18 131 2
74 9 124 16 131 7 7 12 26 12 43 0 18 3 35 8 39 4 4 8 -72 10 -170 1 -97 1
-179 -2 -181z m67 172 c-3 -9 -8 -14 -10 -11 -3 3 -2 9 2 15 9 16 15 13 8 -4z
m23 -51 c-5 -20 -3 -27 14 -31 15 -4 20 -14 20 -37 0 -21 3 -27 9 -18 7 11 9
11 14 -2 4 -10 1 -16 -8 -16 -8 0 -15 -4 -15 -10 0 -5 6 -7 13 -4 7 2 20 -9
30 -25 20 -33 21 -41 7 -41 -5 0 -10 9 -10 19 0 11 -5 23 -11 27 -9 5 -10 -1
-5 -20 4 -18 3 -25 -4 -21 -5 3 -10 1 -10 -5 0 -6 6 -10 13 -9 50 6 58 0 56
-44 -2 -23 3 -51 9 -62 9 -17 10 -13 6 20 l-5 40 14 -31 c8 -18 20 -35 26 -38
6 -4 11 -15 11 -24 0 -13 -2 -13 -15 4 -12 15 -14 16 -15 3 0 -9 11 -21 25
-27 14 -6 25 -18 25 -27 0 -8 3 -15 8 -15 4 0 8 -17 10 -37 1 -21 6 -41 11
-46 5 -5 7 4 4 20 l-4 28 15 -25 c20 -33 20 -35 -6 -48 -22 -11 -22 -11 7 -9
29 2 30 0 33 -40 2 -24 7 -43 12 -43 4 0 6 -10 4 -22 -4 -22 -4 -22 8 1 10 19
10 25 0 29 -6 2 -12 13 -12 25 0 19 2 19 15 -7 8 -15 15 -35 15 -42 0 -8 5
-14 10 -14 6 0 10 -7 10 -16 0 -13 -3 -14 -14 -5 -10 8 -16 9 -21 1 -3 -5 -14
-10 -23 -10 -35 0 -48 -73 -17 -92 6 -4 12 -22 13 -42 2 -26 -2 -36 -15 -39
-14 -4 -14 -5 4 -6 12 0 23 -7 26 -13 2 -8 8 -9 13 -4 5 5 4 11 -3 13 -7 3
-13 17 -13 31 0 15 4 22 8 17 4 -6 18 -16 32 -23 25 -11 25 -11 -5 -7 l-30 5
30 -14 c20 -10 24 -15 13 -16 -10 0 -18 -4 -18 -10 0 -15 27 -12 44 6 14 13
16 13 16 1 0 -29 -12 -48 -24 -39 -6 5 -42 20 -81 33 -78 27 -94 37 -87 58 3
10 -1 12 -16 9 -19 -5 -21 0 -27 76 -4 44 -9 90 -11 101 -2 10 0 22 5 25 4 3
5 14 0 25 -6 17 -8 17 -8 3 -1 -10 -6 -18 -11 -18 -6 0 -9 14 -8 31 2 18 -2
34 -9 36 -7 3 -10 -4 -6 -19 4 -16 2 -20 -5 -13 -6 6 -12 17 -14 25 -2 8 -11
21 -21 28 -9 7 -15 17 -13 21 3 4 -4 12 -15 19 -11 7 -19 8 -19 2 0 -5 -7 -7
-15 -4 -20 8 -19 24 3 25 15 1 15 2 -1 6 -16 4 -18 14 -15 79 2 41 -1 74 -5
74 -5 0 -6 12 -3 28 3 15 6 72 7 127 2 111 5 135 21 135 6 0 8 -10 4 -26z
m-156 4 c0 -7 -3 -23 -6 -35 -5 -19 -8 -20 -20 -8 -18 18 -18 26 0 19 11 -4
13 0 9 15 -3 12 -1 21 6 21 6 0 11 -6 11 -12z m-96 -203 c11 -8 29 -16 40 -16
17 -1 18 -2 4 -6 -10 -2 -18 -9 -18 -14 0 -6 8 -9 18 -8 46 4 47 3 46 -89 0
-86 0 -87 -25 -85 -21 2 -22 2 -4 -6 11 -5 23 -7 27 -5 4 3 9 0 13 -6 3 -5 -3
-10 -14 -10 -12 0 -21 -3 -21 -8 0 -4 -10 -12 -21 -17 -12 -6 -32 -29 -44 -53
-18 -33 -24 -39 -28 -25 -4 15 -5 14 -7 -4 -1 -13 -4 -26 -5 -30 -1 -5 -6 -23
-10 -40 -4 -18 -12 -30 -17 -27 -6 4 -9 -12 -7 -42 1 -27 2 -66 1 -86 l-2 -38
-72 -1 c-49 0 -66 -3 -53 -9 11 -4 31 -6 45 -4 l25 4 -25 -11 c-29 -14 -27
-14 -60 -4 -23 7 -24 7 -10 -10 14 -17 13 -18 -15 -11 -22 5 -26 4 -15 -4 13
-9 7 -14 -12 -11 -5 0 -8 -3 -8 -9 0 -5 -11 -10 -24 -10 -14 0 -28 -5 -31 -10
-4 -6 -12 -4 -22 6 -14 14 -17 14 -31 0 -9 -9 -12 -19 -8 -23 4 -4 11 -1 16 7
5 8 12 11 17 7 4 -5 1 -12 -7 -17 -18 -12 -21 -12 -39 -1 -12 8 -12 12 2 26
10 9 17 23 17 31 0 19 10 18 26 -3 11 -15 13 -16 14 -2 0 8 -6 21 -12 28 -11
11 -10 13 4 8 10 -3 20 -2 23 3 4 6 -1 10 -9 10 -9 0 -16 5 -16 11 0 6 9 9 20
6 16 -4 20 0 21 21 1 43 9 76 20 87 8 7 10 1 7 -21 -3 -22 -1 -31 8 -27 9 3 9
14 2 39 -9 34 1 65 20 62 25 -3 40 5 50 27 14 31 6 32 -18 3 -10 -13 -21 -20
-25 -16 -4 4 0 14 9 23 9 9 16 20 16 25 0 5 8 6 17 3 13 -5 15 -2 10 12 -4 10
-4 27 -1 39 6 18 8 19 13 4 5 -15 8 -13 18 7 6 14 7 23 2 19 -13 -8 -11 10 6
42 9 18 15 23 15 12 0 -9 4 -19 8 -22 5 -3 8 9 7 26 -2 36 20 87 28 66 5 -12
11 15 8 34 0 4 6 5 14 2 8 -4 15 -1 15 5 0 6 -4 11 -10 11 -11 0 -2 28 15 50
7 8 15 24 17 35 2 11 9 20 16 20 6 0 11 -4 10 -10 -2 -5 -6 -9 -10 -7 -5 1 -8
-13 -7 -30 0 -27 9 -28 11 -1 1 5 8 13 17 20 14 10 13 14 -8 37 -26 28 -18 35
13 11z m150 -61 c13 -5 16 -23 16 -90 0 -83 0 -84 -25 -84 -25 0 -25 1 -25 90
0 89 3 96 34 84z m509 -621 c-5 -13 -2 -15 15 -11 24 7 52 -17 30 -24 -18 -6
-48 2 -48 13 0 5 -7 9 -16 9 -14 0 -14 3 -4 15 17 20 31 19 23 -2z m91 -58 c3
-8 1 -15 -4 -15 -6 0 -10 7 -10 15 0 8 2 15 4 15 2 0 6 -7 10 -15z m-1157 -11
c-3 -3 -12 -4 -19 -1 -8 3 -5 6 6 6 11 1 17 -2 13 -5z"/>
<path d="M1160 1070 c0 -5 5 -10 11 -10 5 0 7 5 4 10 -3 6 -8 10 -11 10 -2 0
-4 -4 -4 -10z"/>
<path d="M1321 764 c0 -11 3 -14 6 -6 3 7 2 16 -1 19 -3 4 -6 -2 -5 -13z"/>
<path d="M1345 720 c3 -5 8 -10 11 -10 2 0 4 5 4 10 0 6 -5 10 -11 10 -5 0 -7
-4 -4 -10z"/>
<path d="M1376 481 c-4 -7 -5 -15 -2 -18 9 -9 19 4 14 18 -4 11 -6 11 -12 0z"/>
<path d="M1380 402 c0 -12 19 -26 26 -19 2 2 -2 10 -11 17 -9 8 -15 8 -15 2z"/>
<path d="M1360 345 c0 -8 3 -15 6 -15 3 0 12 7 20 15 14 13 13 15 -5 15 -12 0
-21 -6 -21 -15z"/>
<path d="M956 892 c-3 -5 1 -9 9 -9 8 0 15 4 15 9 0 4 -4 8 -9 8 -6 0 -12 -4
-15 -8z"/>
<path d="M790 750 c0 -5 5 -10 11 -10 5 0 7 5 4 10 -3 6 -8 10 -11 10 -2 0 -4
-4 -4 -10z"/>
<path d="M900 688 c-12 -22 -12 -22 6 -6 10 10 15 20 12 24 -4 3 -12 -5 -18
-18z"/>
<path d="M876 647 c3 -10 9 -15 12 -12 3 3 0 11 -7 18 -10 9 -11 8 -5 -6z"/>
<path d="M821 556 c-10 -12 -9 -14 5 -12 10 2 20 8 22 14 5 17 -13 15 -27 -2z"/>
<path d="M635 480 c3 -5 8 -10 11 -10 2 0 4 5 4 10 0 6 -5 10 -11 10 -5 0 -7
-4 -4 -10z"/>
<path d="M801 424 c0 -11 3 -14 6 -6 3 7 2 16 -1 19 -3 4 -6 -2 -5 -13z"/>
<path d="M800 371 c0 -25 6 -27 13 -6 4 8 2 17 -3 20 -6 4 -10 -3 -10 -14z"/>
<path d="M577 279 c8 -8 16 -8 30 0 16 9 14 10 -11 11 -22 0 -27 -3 -19 -11z"/>
<path d="M950 1380 c0 -5 5 -10 11 -10 5 0 7 5 4 10 -3 6 -8 10 -11 10 -2 0
-4 -4 -4 -10z"/>
<path d="M877 1236 c-4 -10 -5 -21 -2 -24 9 -9 17 6 13 25 -3 17 -4 17 -11 -1z"/>
<path d="M726 941 c-4 -7 -5 -15 -2 -18 9 -9 19 4 14 18 -4 11 -6 11 -12 0z"/>
<path d="M1460 800 c0 -5 5 -10 11 -10 5 0 8 -4 5 -8 -2 -4 -1 -14 5 -22 7
-13 9 -12 9 2 0 23 -11 48 -21 48 -5 0 -9 -4 -9 -10z"/>
<path d="M1522 670 c0 -14 2 -19 5 -12 2 6 2 18 0 25 -3 6 -5 1 -5 -13z"/>
<path d="M570 656 c0 -2 6 -9 14 -15 10 -9 15 -8 20 4 4 10 -1 15 -14 15 -11
0 -20 -2 -20 -4z"/>
<path d="M1030 653 c-8 -3 -33 -25 -55 -48 -52 -56 -79 -145 -74 -242 2 -37 1
-70 -3 -71 -4 -2 -29 -10 -55 -17 -83 -22 -209 -73 -295 -117 -46 -24 -99 -50
-118 -58 -54 -21 -92 -51 -86 -66 3 -8 0 -14 -6 -14 -6 0 -9 -2 -6 -5 11 -11
69 18 64 31 -3 8 -2 13 2 13 26 -4 72 3 72 10 0 5 -10 7 -22 5 -21 -4 -21 -4
-3 5 11 4 35 6 53 3 34 -5 85 15 76 30 -3 4 -12 1 -20 -7 -9 -8 -25 -15 -37
-14 -15 0 -17 3 -7 6 8 3 23 14 33 24 15 14 24 16 38 8 16 -8 19 -6 19 11 0
21 14 27 25 10 4 -6 12 -4 21 5 9 8 23 15 32 15 15 0 15 2 2 10 -13 9 -13 10
0 11 8 1 21 1 29 0 7 -2 10 2 7 7 -3 5 6 7 19 4 14 -2 25 0 25 6 0 6 9 16 20
22 14 7 20 7 20 0 0 -5 -8 -10 -17 -10 -15 0 -16 -2 -3 -10 11 -7 17 -4 24 9
8 20 56 34 79 25 28 -10 48 43 47 119 -2 78 23 184 32 137 3 -14 3 -6 1 18 -5
52 21 61 31 10 8 -49 10 -324 1 -338 -10 -16 5 -190 16 -190 5 0 9 135 9 311
0 272 2 310 15 305 8 -3 15 -1 15 4 0 6 5 10 12 10 8 0 9 -30 4 -110 -4 -73
-3 -110 4 -110 6 0 10 19 9 43 -4 116 3 187 17 187 12 0 14 -49 14 -320 0
-214 3 -320 10 -320 7 0 10 83 8 250 -2 195 0 250 10 250 15 0 16 16 2 25 -8
5 -7 11 1 21 9 11 8 18 -2 31 -12 14 -12 16 1 11 8 -2 17 -13 18 -24 2 -10 11
-25 20 -31 14 -12 14 -15 -4 -35 -10 -13 -12 -17 -4 -10 8 6 21 12 30 12 11 0
12 -2 2 -9 -9 -5 -12 -34 -11 -98 1 -76 5 -93 21 -107 10 -9 16 -22 12 -28 -5
-7 -2 -9 9 -5 9 3 19 2 22 -3 9 -15 27 -12 19 3 -6 10 -4 10 7 0 7 -7 23 -13
36 -13 13 0 23 -5 23 -11 0 -6 7 -9 14 -6 10 4 13 1 9 -9 -3 -7 0 -14 6 -14 6
0 11 5 11 11 0 7 10 9 28 4 37 -9 46 -20 29 -37 -13 -12 -10 -14 22 -15 28 0
31 1 16 7 -16 7 -17 9 -3 9 9 1 20 -4 23 -10 4 -6 13 -8 20 -5 9 3 11 -2 7
-16 -5 -21 12 -38 38 -37 8 0 5 4 -8 10 -13 5 -21 13 -17 18 7 12 68 -12 73
-28 2 -6 13 -11 23 -11 11 0 18 -4 15 -9 -3 -5 3 -11 14 -14 11 -3 20 -13 20
-23 0 -17 1 -17 13 -1 8 12 16 14 27 7 13 -9 13 -11 0 -20 -8 -5 -10 -10 -5
-10 6 0 16 5 23 12 10 10 16 8 29 -5 10 -9 12 -17 6 -17 -6 0 -14 6 -16 13 -4
9 -6 9 -6 -1 -1 -16 32 -29 36 -15 2 6 13 8 25 5 20 -5 21 -3 14 39 -5 24 -8
55 -8 69 0 14 -3 19 -5 13 -8 -22 -26 -14 -20 8 4 15 2 19 -9 15 -7 -3 -13 -2
-13 2 1 4 0 27 -1 52 l-3 45 -7 -35 c-5 -23 -8 -27 -9 -12 0 12 -6 22 -11 22
-7 0 -7 7 0 21 13 23 4 41 -9 20 -7 -11 -11 -9 -21 8 -9 18 -9 26 2 39 8 10 9
13 1 9 -7 -5 -16 1 -23 12 -6 11 -16 18 -23 15 -15 -5 -45 6 -92 34 -16 10
-52 26 -79 35 l-50 17 22 -20 c11 -11 24 -20 27 -20 4 0 49 -28 100 -62 76
-51 97 -71 115 -108 12 -25 42 -78 67 -118 44 -71 50 -99 15 -74 -9 7 -24 15
-32 19 -8 4 -17 10 -20 13 -5 6 -157 81 -253 124 -57 26 -146 56 -202 70 l-50
12 3 70 c9 184 -98 337 -208 297z m-35 -73 c3 -5 1 -10 -4 -10 -6 0 -11 5 -11
10 0 6 2 10 4 10 3 0 8 -4 11 -10z m212 -182 c-2 -13 -4 -3 -4 22 0 25 2 35 4
23 2 -13 2 -33 0 -45z m0 -60 c-3 -8 -6 -5 -6 6 -1 11 2 17 5 13 3 -3 4 -12 1
-19z m13 -22 c0 -3 -4 -8 -10 -11 -5 -3 -10 -1 -10 4 0 6 5 11 10 11 6 0 10
-2 10 -4z m-563 -142 c-3 -3 -12 -4 -19 -1 -8 3 -5 6 6 6 11 1 17 -2 13 -5z
m-277 -134 c0 -5 -4 -10 -10 -10 -5 0 -10 5 -10 10 0 6 5 10 10 10 6 0 10 -4
10 -10z"/>
<path d="M1561 614 c0 -11 3 -14 6 -6 3 7 2 16 -1 19 -3 4 -6 -2 -5 -13z"/>
<path d="M1046 585 c-3 -8 -1 -15 4 -15 6 0 10 7 10 15 0 8 -2 15 -4 15 -2 0
-6 -7 -10 -15z"/>
<path d="M1566 582 c-3 -6 -1 -14 5 -17 14 -9 20 -2 10 14 -6 8 -11 9 -15 3z"/>
<path d="M497 473 c-11 -13 -17 -26 -14 -29 2 -3 12 7 21 22 23 33 17 39 -7 7z"/>
<path d="M1640 475 c0 -8 2 -15 4 -15 2 0 6 7 10 15 3 8 1 15 -4 15 -6 0 -10
-7 -10 -15z"/>
<path d="M1695 467 c-6 -15 -10 -16 -17 -5 -6 8 -7 0 -2 -22 4 -19 7 -41 7
-49 0 -8 9 -16 19 -19 10 -2 15 -8 12 -13 -3 -5 -1 -9 5 -9 5 0 13 5 16 11 4
6 13 8 21 5 8 -3 14 1 14 10 0 11 -6 15 -20 11 -16 -4 -20 0 -20 20 0 14 -4
22 -10 18 -6 -4 -8 -15 -5 -26 4 -11 2 -19 -4 -19 -6 0 -11 6 -11 14 0 8 -3
21 -6 30 -5 13 1 16 26 16 28 0 32 -3 27 -21 -8 -29 9 -11 18 20 5 16 4 21 -4
16 -7 -4 -19 -1 -28 7 -12 9 -15 9 -9 1 4 -7 3 -13 -3 -13 -5 0 -11 8 -14 18
-4 16 -4 16 -12 -1z"/>
<path d="M1041 440 c-7 -113 -7 -153 0 -130 10 28 3 -46 -8 -89 -4 -15 -2 -22
4 -18 7 5 11 -13 10 -51 0 -111 3 -152 13 -152 13 0 13 390 0 405 -4 5 -10 21
-13 35 l-4 25 -2 -25z m16 -212 c-3 -8 -6 -5 -6 6 -1 11 2 17 5 13 3 -3 4 -12
1 -19z"/>
<path d="M1650 434 c0 -8 5 -12 10 -9 6 4 8 11 5 16 -9 14 -15 11 -15 -7z"/>
<path d="M1782 411 c0 -41 2 -43 14 -26 17 23 17 27 0 51 -14 17 -15 15 -14
-25z"/>
<path d="M936 403 c10 -40 14 -41 14 -5 0 18 -5 32 -10 32 -6 0 -8 -11 -4 -27z"/>
<path d="M411 344 c0 -11 3 -14 6 -6 3 7 2 16 -1 19 -3 4 -6 -2 -5 -13z"/>
<path d="M1403 193 c9 -2 23 -2 30 0 6 3 -1 5 -18 5 -16 0 -22 -2 -12 -5z"/>
<path d="M732 175 c-7 -8 -9 -15 -4 -15 5 0 15 7 22 15 16 19 -1 19 -18 0z"/>
<path d="M1831 130 c0 -8 4 -22 9 -30 12 -18 12 -2 0 25 -6 13 -9 15 -9 5z"/>
<path d="M1578 83 c7 -3 16 -2 19 1 4 3 -2 6 -13 5 -11 0 -14 -3 -6 -6z"/>
</g>
</svg>
